<svg width="320" height="70" viewBox="0 0 320 70" fill="none" xmlns="http://www.w3.org/2000/svg">
<path opacity="0.5" d="M1.87756 9.79932L10.6621 19.9788C11.7518 21.1889 12.9574 22.5557 14.2669 24.0402C23.5135 34.5232 37.9403 50.879 53.33 59.4241C69.6442 69.6036 87.2133 69.6036 103.528 65.7863C121.097 61.5448 138.666 53.4861 154.98 45.8515C156.332 45.2312 157.677 44.6109 159.016 43.9935C175.068 36.5899 190.216 29.6035 206.432 28.0375C212.603 27.2354 218.953 27.2827 225.347 27.3304C235.858 27.4088 246.486 27.4881 256.63 23.7961C263.555 21.4556 270.48 17.5995 277.328 13.7862C287.854 7.92491 298.199 2.16473 308.082 2.16473C311.458 2.16473 314.788 2.74422 318.089 3.76475" stroke="#4830E2" stroke-width="2.83175" stroke-linecap="round"/>
</svg>
