<svg width="320" height="67" viewBox="0 0 320 67" fill="none" xmlns="http://www.w3.org/2000/svg">
<path opacity="0.5" d="M318.089 59.5535C310.222 55.1069 302.552 50.9651 294.458 50.9651C288.143 50.9651 282.087 53.4864 275.993 56.0232C271.437 57.9196 266.86 59.8248 262.139 60.6916C251.891 62.718 240.855 58.6653 230.608 52.9915C219.572 47.3177 208.536 39.6176 198.288 28.27C195.839 25.7512 193.428 23.0526 191.039 20.3783C182.664 11.0043 174.555 1.92743 165.969 1.92743C159.761 1.92743 153.263 7.43129 146.651 13.0318C142.349 16.6754 137.999 20.3599 133.65 22.5962C127.278 26.124 120.602 26.0482 113.999 25.9733C109.983 25.9277 105.995 25.8825 102.119 26.6489C91.9321 28.1452 82.4173 34.8208 72.3342 41.895C71.4934 42.4849 70.6486 43.0776 69.7992 43.6703C59.5515 50.9651 48.5157 58.6653 37.4798 62.718C27.2322 66.3654 16.1963 66.3654 5.94868 56.6389C4.57694 55.4803 3.21738 54.1714 1.87756 52.7496" stroke="#27D692" stroke-width="2.83175" stroke-linecap="round"/>
</svg>
