<svg width="21" height="22" viewBox="0 0 21 22" fill="none" xmlns="http://www.w3.org/2000/svg">
<g id="Icon" clip-path="url(#clip0_1124_1661)">
<path id="Vector" d="M17.5775 19.4201H3.89661V17.71C3.89661 16.5761 4.34704 15.4887 5.14881 14.6869C5.95058 13.8852 7.03802 13.4347 8.1719 13.4347H13.3022C14.4361 13.4347 15.5236 13.8852 16.3253 14.6869C17.1271 15.4887 17.5775 16.5761 17.5775 17.71V19.4201ZM10.7371 11.7246C10.0633 11.7246 9.39621 11.5919 8.77377 11.3341C8.15133 11.0763 7.58576 10.6984 7.10937 10.222C6.63297 9.74558 6.25507 9.18002 5.99725 8.55757C5.73942 7.93513 5.60672 7.268 5.60672 6.59428C5.60672 5.92055 5.73942 5.25342 5.99725 4.63098C6.25507 4.00853 6.63297 3.44297 7.10937 2.96657C7.58576 2.49018 8.15133 2.11228 8.77377 1.85445C9.39621 1.59663 10.0633 1.46393 10.7371 1.46393C12.0977 1.46393 13.4026 2.00445 14.3648 2.96657C15.3269 3.9287 15.8674 5.23362 15.8674 6.59428C15.8674 7.95493 15.3269 9.25985 14.3648 10.222C13.4026 11.1841 12.0977 11.7246 10.7371 11.7246Z" fill="white"/>
</g>
<defs>
<clipPath id="clip0_1124_1661">
<rect width="20.5214" height="20.5214" fill="white" transform="translate(0.477173 0.608215)"/>
</clipPath>
</defs>
</svg>
