<svg width="320" height="106" viewBox="0 0 320 106" fill="none" xmlns="http://www.w3.org/2000/svg">
<path opacity="0.5" d="M318.089 89.1671C317.401 89.0689 316.716 88.9503 316.033 88.8106C309.804 87.6272 303.765 85.0264 297.754 82.4375C289.713 78.9745 281.722 75.5327 273.39 75.5327C262.219 75.5327 251.661 81.7189 240.775 88.0968C237.471 90.0327 234.137 91.9862 230.747 93.7898C217.226 101.535 202.664 107.068 189.143 101.535C175.855 96.9913 163.433 83.6929 150.296 69.6293C149.038 68.2823 147.773 66.9283 146.5 65.5742C145.417 64.4215 144.339 63.2688 143.266 62.1213C129.921 47.8483 117.335 34.3865 103.857 31.8261C97.626 30.5513 91.1738 32.0966 84.7043 33.646C77.1359 35.4586 69.5439 37.2769 62.2542 34.5924C54.7356 31.7357 47.2169 24.8963 39.8415 18.1871C32.9332 11.903 26.1505 5.73303 19.6111 3.05727C13.5704 0.99163 7.70875 1.592 1.87756 3.71288" stroke="#D4767F" stroke-width="2.83175" stroke-linecap="round"/>
</svg>
