<svg width="25" height="25" viewBox="0 0 25 25" fill="none" xmlns="http://www.w3.org/2000/svg">
<g id="Group 6">
<circle id="Oval 4" cx="12.0436" cy="12.1148" r="12.0286" fill="#FABB18"/>
<g id="Group 221">
<path id="basic / flag_fill" d="M13.2127 6.86282C13.156 6.58498 12.9115 6.3855 12.628 6.3855H8.34397C8.01445 6.3855 7.74731 6.65263 7.74731 6.98215V15.932C7.74731 16.2615 8.01445 16.5287 8.34397 16.5287C8.6735 16.5287 8.94063 16.2615 8.94063 15.932V12.3521H12.2819L12.4251 13.0681C12.4792 13.3474 12.7253 13.5483 13.0098 13.5454H16.1005C16.43 13.5454 16.6972 13.2782 16.6972 12.9487V8.17547C16.6972 7.84594 16.43 7.57881 16.1005 7.57881H13.3559L13.2127 6.86282Z" fill="white"/>
</g>
</g>
</svg>
