<svg width="25" height="25" viewBox="0 0 25 25" fill="none" xmlns="http://www.w3.org/2000/svg">
<g id="Group 6">
<circle id="Oval 4" cx="12.6099" cy="12.3396" r="12.0286" fill="#26CF8E"/>
<g id="Group 228">
<path id="edit / edit" d="M8.02286 17.4965C7.86412 17.4962 7.71279 17.4293 7.60579 17.312C7.49683 17.1957 7.44268 17.0384 7.45696 16.8797L7.59561 15.3552L14.0004 8.9526L16.002 10.9536L9.59888 17.3556L8.07436 17.4942C8.05681 17.4959 8.03927 17.4965 8.02286 17.4965ZM16.4015 10.5535L14.4005 8.55252L15.6008 7.35225C15.7069 7.24599 15.851 7.18628 16.0011 7.18628C16.1513 7.18628 16.2954 7.24599 16.4015 7.35225L17.6018 8.55252C17.708 8.65866 17.7678 8.80269 17.7678 8.95289C17.7678 9.10308 17.708 9.24711 17.6018 9.35326L16.4021 10.553L16.4015 10.5535Z" fill="white"/>
</g>
</g>
</svg>
