<svg width="15" height="15" viewBox="0 0 15 15" fill="none" xmlns="http://www.w3.org/2000/svg">
<g id="Arrow - Down Square">
<path id="Fill 1" fill-rule="evenodd" clip-rule="evenodd" d="M4.42015 1.55071C2.61584 1.55071 1.4491 2.78663 1.4491 4.70005V10.5252C1.4491 12.4386 2.61584 13.6745 4.42015 13.6745H10.6026C12.4069 13.6745 13.5729 12.4386 13.5729 10.5252V4.70005C13.5729 2.78663 12.4069 1.55071 10.6026 1.55071H4.42015ZM10.6024 14.7438H4.42001C2.00309 14.7438 0.379211 13.0479 0.379211 10.5247V4.69956C0.379211 2.17638 2.00309 0.480469 4.42001 0.480469H10.6024C13.0194 0.480469 14.6425 2.17638 14.6425 4.69956V10.5247C14.6425 13.0479 13.0194 14.7438 10.6024 14.7438Z" fill="#31D0AA"/>
<path id="Fill 3" fill-rule="evenodd" clip-rule="evenodd" d="M7.51089 11.0613C7.21564 11.0613 6.97601 10.8217 6.97601 10.5264V4.69845C6.97601 4.4032 7.21564 4.16357 7.51089 4.16357C7.80614 4.16357 8.04576 4.4032 8.04576 4.69845V10.5264C8.04576 10.8217 7.80614 11.0613 7.51089 11.0613Z" fill="#31D0AA"/>
<path id="Fill 5" fill-rule="evenodd" clip-rule="evenodd" d="M7.51099 11.0618C7.36907 11.0618 7.23214 11.0054 7.1323 10.9042L4.45935 8.2198C4.25039 8.01013 4.25182 7.67138 4.46078 7.46313C4.67045 7.2556 5.00849 7.25418 5.21673 7.46456L7.51099 9.7688L9.80524 7.46456C10.0142 7.25418 10.3522 7.2556 10.5612 7.46313C10.7702 7.67138 10.7716 8.01013 10.5626 8.2198L7.88968 10.9042C7.78984 11.0054 7.65291 11.0618 7.51099 11.0618Z" fill="#31D0AA"/>
</g>
</svg>
