<svg width="16" height="15" viewBox="0 0 16 15" fill="none" xmlns="http://www.w3.org/2000/svg">
<g id="Arrow - Up Square">
<path id="Fill 1" fill-rule="evenodd" clip-rule="evenodd" d="M5.00146 13.411C3.19715 13.411 2.03041 12.1751 2.03041 10.2617V4.43654C2.03041 2.52311 3.19715 1.2872 5.00146 1.2872H11.1839C12.9882 1.2872 14.1542 2.52311 14.1542 4.43654V10.2617C14.1542 12.1751 12.9882 13.411 11.1839 13.411H5.00146ZM11.1839 0.217637H5.00149C2.58457 0.217637 0.960693 1.91355 0.960693 4.43673V10.2619C0.960693 12.785 2.58457 14.481 5.00149 14.481H11.1839C13.6008 14.481 15.224 12.785 15.224 10.2619V4.43673C15.224 1.91355 13.6008 0.217637 11.1839 0.217637Z" fill="#FF0000"/>
<path id="Fill 3" fill-rule="evenodd" clip-rule="evenodd" d="M8.09237 3.90011C7.79712 3.90011 7.5575 4.13973 7.5575 4.43498V10.263C7.5575 10.5582 7.79712 10.7979 8.09237 10.7979C8.38762 10.7979 8.62724 10.5582 8.62724 10.263V4.43498C8.62724 4.13973 8.38762 3.90011 8.09237 3.90011Z" fill="#FF0000"/>
<path id="Fill 5" fill-rule="evenodd" clip-rule="evenodd" d="M8.09229 3.89966C7.95037 3.89966 7.81344 3.956 7.7136 4.05727L5.04065 6.74162C4.83169 6.95129 4.83312 7.29005 5.04208 7.49829C5.25175 7.70582 5.58979 7.70725 5.79803 7.49687L8.09229 5.19263L10.3865 7.49687C10.5955 7.70725 10.9335 7.70582 11.1425 7.49829C11.3515 7.29005 11.3529 6.95129 11.1439 6.74162L8.47098 4.05727C8.37114 3.956 8.23421 3.89966 8.09229 3.89966Z" fill="#FF0000"/>
</g>
</svg>
