<svg width="53" height="53" viewBox="0 0 53 53" fill="none" xmlns="http://www.w3.org/2000/svg">
<g id="Kickstarter/color">
<g id="Kickstarter">
<path id="Oval" d="M26.7197 52.822C41.0348 52.822 52.6395 41.2173 52.6395 26.9022C52.6395 12.5871 41.0348 0.982422 26.7197 0.982422C12.4046 0.982422 0.799927 12.5871 0.799927 26.9022C0.799927 41.2173 12.4046 52.822 26.7197 52.822Z" fill="#2BDE73"/>
<path id="K" d="M23.9092 22.7757L28.6627 15.8887C29.5614 14.5911 30.7215 13.9424 32.144 13.9424C33.3043 13.9424 34.3081 14.354 35.1571 15.1774C36.0053 16.0009 36.4294 16.9865 36.4294 18.1343C36.4294 18.9828 36.2053 19.7315 35.7559 20.3803L31.4699 26.6123L36.7103 33.2561C37.2344 33.9174 37.4963 34.6911 37.4963 35.5768C37.4963 36.7499 37.085 37.7568 36.2612 38.599C35.4378 39.4415 34.4391 39.8622 33.2668 39.8622C31.9815 39.8622 31.0024 39.4446 30.3284 38.6084L23.9092 30.5986V35.0155C23.9092 36.2758 23.691 37.2549 23.2542 37.9537C22.4557 39.2259 21.2954 39.8622 19.7735 39.8622C18.3885 39.8622 17.3151 39.3943 16.5544 38.4587C15.8431 37.5978 15.4878 36.4559 15.4878 35.0342V18.6584C15.4878 17.3109 15.8491 16.2008 16.5731 15.3274C17.3341 14.4042 18.3819 13.9424 19.717 13.9424C20.9898 13.9424 22.0501 14.4042 22.8986 15.3274C23.3726 15.8387 23.672 16.3565 23.7967 16.8806C23.8717 17.2052 23.9092 17.81 23.9092 18.6959V22.7757Z" fill="white"/>
</g>
</g>
</svg>
