<svg width="53" height="53" viewBox="0 0 53 53" fill="none" xmlns="http://www.w3.org/2000/svg">
<g id="Google/color">
<g id="Google">
<path id="back" d="M0.800049 26.7201C0.800049 12.405 12.4047 0.800293 26.7198 0.800293C41.0349 0.800293 52.6396 12.405 52.6396 26.7201C52.6396 41.0352 41.0349 52.6399 26.7198 52.6399C12.4047 52.6399 0.800049 41.0352 0.800049 26.7201Z" fill="white"/>
<g id="super-g">
<path id="Shape" d="M26.7199 19.8313C28.829 19.8313 30.2517 20.7423 31.0629 21.5036L34.2328 18.4086C32.2859 16.599 29.7525 15.4883 26.7199 15.4883C22.3269 15.4883 18.5331 18.0092 16.686 21.6783L20.3177 24.4988C21.2287 21.7906 23.7497 19.8313 26.7199 19.8313Z" fill="#EA4335"/>
<path id="Shape_2" d="M37.5025 26.9696C37.5025 26.0461 37.4276 25.3722 37.2654 24.6733H26.7198V28.8416H32.9099C32.7851 29.8775 32.1112 31.4374 30.6136 32.4858L34.1579 35.2313C36.2795 33.272 37.5025 30.3891 37.5025 26.9696Z" fill="#4285F4"/>
<path id="Shape_3" d="M20.3301 28.9415C20.093 28.2426 19.9557 27.4939 19.9557 26.7201C19.9557 25.9463 20.093 25.1976 20.3176 24.4987L16.686 21.6782C15.9247 23.2008 15.4879 24.9105 15.4879 26.7201C15.4879 28.5297 15.9247 30.2394 16.686 31.762L20.3301 28.9415Z" fill="#FBBC05"/>
<path id="Shape_4" d="M26.7197 37.9519C29.7523 37.9519 32.2982 36.9535 34.1577 35.2313L30.6135 32.4857C29.665 33.1471 28.392 33.6089 26.7197 33.6089C23.7495 33.6089 21.2286 31.6495 20.33 28.9414L16.6984 31.7619C18.5454 35.431 22.3268 37.9519 26.7197 37.9519Z" fill="#34A853"/>
</g>
</g>
</g>
</svg>
