<svg width="53" height="53" viewBox="0 0 53 53" fill="none" xmlns="http://www.w3.org/2000/svg">
<g id="KakaoTalk/color" clip-path="url(#clip0_1124_2217)">
<path id="back" d="M0.800049 26.4935C0.800049 12.1784 12.4047 0.57373 26.7198 0.57373C41.0349 0.57373 52.6396 12.1784 52.6396 26.4935C52.6396 40.8086 41.0349 52.4133 26.7198 52.4133C12.4047 52.4133 0.800049 40.8086 0.800049 26.4935Z" fill="#FFE812"/>
<g id="Group">
<path id="Vector" d="M26.7198 12.4536C17.1763 12.4536 9.43994 18.5536 9.43994 26.0781C9.43994 30.9429 12.6743 35.2115 17.5395 37.6219C17.2749 38.5347 15.8386 43.4944 15.7815 43.884C15.7815 43.884 15.7471 44.1768 15.9367 44.2884C16.1263 44.4001 16.3492 44.3134 16.3492 44.3134C16.8929 44.2374 22.6536 40.1909 23.6506 39.4883C24.6467 39.6294 25.6724 39.7026 26.7198 39.7026C36.2633 39.7026 43.9997 33.6028 43.9997 26.0781C43.9997 18.5536 36.2633 12.4536 26.7198 12.4536Z" fill="#381F1F"/>
<path id="Vector_2" d="M17.166 30.8342C16.6162 30.8342 16.1691 30.4072 16.1691 29.8821V23.9596H14.6136C14.0741 23.9596 13.6353 23.5216 13.6353 22.9835C13.6353 22.4453 14.0742 22.0073 14.6136 22.0073H19.7184C20.2579 22.0073 20.6967 22.4453 20.6967 22.9835C20.6967 23.5216 20.2578 23.9596 19.7184 23.9596H18.1629V29.8821C18.1629 30.4072 17.7158 30.8342 17.166 30.8342ZM25.9076 30.8212C25.4919 30.8212 25.1739 30.6524 25.078 30.3809L24.5844 29.0886L21.5444 29.0884L21.0505 30.3816C20.9549 30.6526 20.6371 30.8212 20.2214 30.8212C20.0027 30.8214 19.7866 30.7745 19.5877 30.6836C19.3128 30.5569 19.0487 30.2083 19.3514 29.268L21.736 22.9914C21.904 22.5141 22.4143 22.0223 23.0636 22.0075C23.7147 22.0221 24.225 22.5141 24.3933 22.9924L26.7769 29.2662C27.0803 30.2086 26.8161 30.5574 26.5413 30.6838C26.3424 30.7745 26.1263 30.8214 25.9076 30.8212C25.9076 30.8212 25.9074 30.8212 25.9076 30.8212ZM24.0602 27.3227L23.0644 24.494L22.0687 27.3227H24.0602ZM28.3813 30.6888C27.8544 30.6888 27.4259 30.2787 27.4259 29.775V23.0042C27.4259 22.4544 27.8825 22.0073 28.4436 22.0073C29.0047 22.0073 29.4613 22.4544 29.4613 23.0042V28.8611H31.5797C32.1066 28.8611 32.5351 29.2712 32.5351 29.775C32.5351 30.2787 32.1066 30.6888 31.5797 30.6888H28.3813ZM33.9198 30.8212C33.37 30.8212 32.9229 30.3741 32.9229 29.8243V23.0042C32.9229 22.4544 33.37 22.0073 33.9198 22.0073C34.4696 22.0073 34.9167 22.4544 34.9167 23.0042V25.1469L37.6981 22.3655C37.8412 22.2225 38.0377 22.1437 38.2511 22.1437C38.5 22.1437 38.7499 22.2511 38.9371 22.4382C39.1117 22.6126 39.2159 22.8371 39.2302 23.0702C39.2447 23.3053 39.1664 23.5208 39.0102 23.6772L36.7384 25.9486L39.1923 29.1996C39.2716 29.3039 39.3293 29.4229 39.3621 29.5496C39.395 29.6764 39.4023 29.8085 39.3837 29.9381C39.366 30.0678 39.3226 30.1928 39.2562 30.3056C39.1898 30.4185 39.1017 30.517 38.9969 30.5956C38.8245 30.7266 38.6138 30.7973 38.3973 30.7968C38.2428 30.7975 38.0903 30.762 37.952 30.6932C37.8138 30.6244 37.6935 30.5242 37.6009 30.4005L35.263 27.3028L34.9171 27.6487V29.8238C34.9167 30.0882 34.8116 30.3417 34.6246 30.5287C34.4377 30.7157 34.1842 30.8209 33.9198 30.8212Z" fill="#FFE812"/>
</g>
</g>
<defs>
<clipPath id="clip0_1124_2217">
<rect width="51.8396" height="51.8396" fill="white" transform="translate(0.800049 0.57373)"/>
</clipPath>
</defs>
</svg>
