<svg width="53" height="53" viewBox="0 0 53 53" fill="none" xmlns="http://www.w3.org/2000/svg">
<g id="Foursquare/color">
<g id="Foursquare">
<path id="back" d="M0.800049 26.3114C0.800049 11.9963 12.4047 0.391602 26.7198 0.391602C41.0349 0.391602 52.6396 11.9963 52.6396 26.3114C52.6396 40.6265 41.0349 52.2312 26.7198 52.2312C12.4047 52.2312 0.800049 40.6265 0.800049 26.3114Z" fill="#FA4778"/>
<path id="Shape" fill-rule="evenodd" clip-rule="evenodd" d="M19.855 12.4873H34.6462C36.8107 12.4873 37.3993 13.7353 36.9436 16.0776C36.336 19.1111 34.3803 28.7109 34.2094 29.3829C34.0006 30.1892 33.6398 31.514 31.7411 31.514H27.2981C27.2221 31.514 27.1652 31.514 27.0513 31.6484C26.9373 31.7828 19.912 40.0578 19.912 40.0578C19.3044 40.6722 18.45 40.5762 18.1272 40.4418C17.8044 40.3074 17.2158 39.9618 17.2158 38.7907V15.0217C17.2158 14.0425 17.8234 12.4873 19.855 12.4873ZM33.1083 19.7829L33.7728 16.5382C33.8868 16.0006 33.469 15.5782 33.0513 15.5782H21.0703C20.6336 15.5782 20.2728 15.943 20.2728 16.3846V35.181C20.2728 35.2386 20.3108 35.2578 20.3488 35.2002C20.3488 35.2002 24.7159 29.6707 25.2095 29.0563C25.7032 28.4419 25.8741 28.4227 26.7095 28.4035H30.6969C31.1526 28.4035 31.4564 28.0387 31.4943 27.7507C31.5513 27.482 32.064 24.9476 32.1589 24.4484C32.2538 23.9684 31.8741 23.5268 31.4184 23.5268H26.5386C25.8931 23.5268 25.3614 22.9893 25.3614 22.3365V21.6261C25.3614 20.9733 25.8931 20.4357 26.5386 20.4357H32.3108C32.7095 20.4357 33.0323 20.1285 33.1083 19.7829Z" fill="white"/>
</g>
</g>
</svg>
