<svg width="11" height="10" viewBox="0 0 11 10" fill="none" xmlns="http://www.w3.org/2000/svg">
<g id="feather-icon / command">
<path id="Shape" fill-rule="evenodd" clip-rule="evenodd" d="M7.83356 1.44141C7.1707 1.44141 6.63335 1.97876 6.63335 2.64161V7.44245C6.63335 8.1053 7.1707 8.64266 7.83356 8.64266C8.49642 8.64266 9.03377 8.1053 9.03377 7.44245C9.03377 6.77959 8.49642 6.24224 7.83356 6.24224H3.03273C2.36987 6.24224 1.83252 6.77959 1.83252 7.44245C1.83252 8.1053 2.36987 8.64266 3.03273 8.64266C3.69558 8.64266 4.23294 8.1053 4.23294 7.44245V2.64161C4.23294 1.97876 3.69558 1.44141 3.03273 1.44141C2.36987 1.44141 1.83252 1.97876 1.83252 2.64161C1.83252 3.30447 2.36987 3.84182 3.03273 3.84182H7.83356C8.49642 3.84182 9.03377 3.30447 9.03377 2.64161C9.03377 1.97876 8.49642 1.44141 7.83356 1.44141Z" stroke="#422F8A" stroke-opacity="0.87" stroke-width="0.800139" stroke-linecap="round" stroke-linejoin="round"/>
</g>
</svg>
