<svg width="12" height="12" viewBox="0 0 12 12" fill="none" xmlns="http://www.w3.org/2000/svg">
<g id="mingcute:currency-pound-2-fill">
<g id="Group">
<path id="Vector" d="M7.8285 3.12122C7.65396 2.81125 7.40011 2.55328 7.09299 2.37375C6.78587 2.19423 6.43654 2.09961 6.0808 2.09961L5.69836 2.10184C5.18341 2.12591 4.69751 2.34741 4.34159 2.72034C3.98568 3.09328 3.78709 3.58898 3.78708 4.1045L3.78708 5.66544L3.11848 5.66544C2.94116 5.66544 2.7711 5.73588 2.64572 5.86127C2.52033 5.98665 2.44989 6.15671 2.44989 6.33403C2.44989 6.51136 2.52033 6.68141 2.64572 6.8068C2.7711 6.93219 2.94116 7.00263 3.11848 7.00263L3.78708 7.00263L3.78708 8.11695C3.78084 8.33357 3.74117 8.5502 3.56956 8.70041C3.48042 8.77796 3.36898 8.80426 3.26513 8.85641C2.55062 9.21344 2.95134 10.2966 3.72646 10.1027C3.8575 10.0661 3.98052 10.01 4.11291 9.97742C4.67096 9.85173 5.21163 9.97207 5.74427 10.1397C6.55506 10.3795 7.29185 10.3688 7.91676 10.1981C8.38433 10.0706 8.90048 9.71756 8.61967 9.15505C8.39369 8.70308 7.95554 8.7793 7.56508 8.90812C6.97984 9.06769 6.40485 8.946 5.841 8.7686C5.59047 8.69594 5.33456 8.64332 5.07568 8.61126C5.10656 8.44827 5.12282 8.28284 5.12427 8.11695L5.12427 7.00263L6.23859 7.00263C6.41591 7.00263 6.58597 6.93219 6.71136 6.8068C6.83674 6.68141 6.90718 6.51136 6.90718 6.33403C6.90718 6.15671 6.83674 5.98665 6.71136 5.86127C6.58597 5.73588 6.41591 5.66544 6.23859 5.66544L5.12427 5.66544L5.12427 4.1045C5.14165 3.74167 5.41577 3.4368 5.79286 3.4368L6.14365 3.43992C6.25656 3.45061 6.3649 3.48985 6.45847 3.55394C6.55204 3.61804 6.62776 3.70488 6.67852 3.80631L7.00925 4.46063C7.10011 4.60698 7.24395 4.71262 7.41079 4.75551C7.57762 4.79841 7.75458 4.77526 7.90476 4.69088C8.05494 4.60651 8.16676 4.46743 8.21691 4.30263C8.26706 4.13783 8.25167 3.96003 8.17394 3.80631L7.8285 3.12122Z" fill="#141F39"/>
</g>
</g>
</svg>
