<svg width="622" height="134" viewBox="0 0 622 134" fill="none" xmlns="http://www.w3.org/2000/svg">
<path d="M83.1446 89.0004C50.5708 93.3343 28.1216 119.118 0.821655 123.346V133.775H621.501V70.8583C591.109 70.8583 587.053 90.0743 572.751 84.7845C558.449 79.4948 543.426 43.1249 526.741 45.0485C510.055 46.972 500.898 -4.06865 465.739 0.740239C430.58 5.54912 404.703 60.4742 376.695 36.9106C348.687 13.3471 342.734 25.7803 312.938 20.9714C283.142 16.1625 270.089 73.7705 241.868 71.9296C213.646 70.0886 206.113 118.003 177.312 113.559C142.413 108.174 145.45 105.157 129.932 98.1717C114.414 91.1862 100.506 86.6905 83.1446 89.0004Z" fill="url(#paint0_linear_1124_928)"/>
<defs>
<linearGradient id="paint0_linear_1124_928" x1="311.161" y1="0.42041" x2="311.161" y2="189.557" gradientUnits="userSpaceOnUse">
<stop stop-color="#7459D9" stop-opacity="0.1"/>
<stop offset="0.998978" stop-color="white" stop-opacity="0"/>
</linearGradient>
</defs>
</svg>
