<svg width="624" height="126" viewBox="0 0 624 126" fill="none" xmlns="http://www.w3.org/2000/svg">
<path d="M1.82166 124.346C29.1216 120.118 51.5708 94.3343 84.1446 90.0004C101.506 87.6905 115.414 92.1862 130.932 99.1717C146.45 106.157 143.413 109.174 178.312 114.559C207.113 119.003 214.646 71.0886 242.868 72.9295C271.089 74.7705 284.142 17.1625 313.938 21.9714C343.734 26.7803 349.687 14.3471 377.695 37.9106C405.703 61.4742 431.58 6.54912 466.739 1.74024C501.898 -3.06865 511.055 47.972 527.741 46.0485C544.426 44.1249 559.449 80.4947 573.751 85.7845C588.053 91.0743 592.109 71.8583 622.501 71.8583" stroke="#422F8A" stroke-opacity="0.87" stroke-width="2.74333" stroke-linecap="round" stroke-linejoin="round"/>
</svg>
