<svg width="29" height="29" viewBox="0 0 29 29" fill="none" xmlns="http://www.w3.org/2000/svg">
<g id="Frame 15">
<rect x="0.716675" y="0.599609" width="27.4333" height="27.4333" rx="10.2875" fill="#FF7977"/>
<path id="Shape" fill-rule="evenodd" clip-rule="evenodd" d="M22.6629 19.2664C22.6571 18.7506 22.5452 18.224 22.3421 17.6982C22.2416 17.4369 22.1528 17.2312 21.9516 16.7825L21.9399 16.7563L21.8841 16.6317C20.65 13.892 19.3519 11.176 17.9904 8.4836C17.9559 8.41593 17.9285 8.36179 17.8678 8.2419L17.8653 8.23699C17.6426 7.79691 17.5399 7.59804 17.4063 7.35345C17.1617 6.90878 16.9124 6.56127 16.6112 6.27696C16.0813 5.76241 15.364 5.44835 14.6189 5.40111L14.2946 5.40039C13.5119 5.4393 12.7708 5.7659 12.2257 6.30697C11.9403 6.58231 11.7009 6.91961 11.462 7.35327C11.3279 7.59799 11.2176 7.8114 11.0073 8.22737L10.9825 8.27649L10.8865 8.46617C9.98042 10.2567 9.09614 12.0721 8.23303 13.9125C7.60181 15.2643 7.15589 16.2377 6.727 17.2102C6.46223 17.8133 6.3123 18.2644 6.24672 18.7434C6.10788 19.6674 6.3062 20.6423 6.79577 21.4437C7.21736 22.1392 7.8497 22.6973 8.58565 23.0203C9.15909 23.2728 9.79115 23.3869 10.4134 23.3495C11.1997 23.307 11.9894 23.0309 12.721 22.5691C13.3056 22.2038 13.8386 21.7442 14.4344 21.1199C14.9739 21.6869 15.4643 22.1181 15.9953 22.471C16.7188 22.9558 17.4948 23.2599 18.2776 23.3352C19.1877 23.432 20.1274 23.2001 20.8879 22.6864C21.5574 22.2374 22.0861 21.5754 22.3832 20.8153C22.576 20.3238 22.6718 19.794 22.6629 19.2664ZM20.8102 20.0132C20.6531 20.5657 20.2737 21.0499 19.7813 21.3273C19.3474 21.5745 18.8233 21.6637 18.323 21.5785C17.7271 21.4841 17.1412 21.1762 16.5316 20.676C16.2327 20.4313 15.9441 20.1525 15.6159 19.7977C16.2043 19.0206 16.6417 18.3414 16.987 17.6346C17.4131 16.7592 17.6534 15.9418 17.6788 15.1301C17.6957 14.5205 17.576 13.9331 17.3162 13.4288C16.9654 12.7339 16.3351 12.1869 15.5929 11.9209C14.921 11.6765 14.172 11.6531 13.4811 11.8536C12.8168 12.0451 12.223 12.4511 11.8172 13.0013C11.4637 13.4759 11.2517 14.0657 11.2031 14.6812C11.1382 15.4501 11.2977 16.2501 11.6406 17.0969C12.0145 18.0045 12.5451 18.875 13.2541 19.7955C13.0124 20.0623 12.7507 20.3185 12.4702 20.5636C11.8624 21.0875 11.2862 21.4203 10.6939 21.5507C10.1732 21.6698 9.62479 21.6063 9.16862 21.3713C8.62505 21.0954 8.20604 20.5737 8.0488 19.9771C7.93052 19.5459 7.95056 19.068 8.09983 18.6198C8.18766 18.3575 8.27622 18.146 8.48484 17.6806L8.50238 17.6415C8.54045 17.5566 8.56504 17.5014 8.59026 17.4444C9.79829 14.7618 11.0773 12.0846 12.425 9.4154L12.528 9.21165L12.5332 9.20136C12.7739 8.72422 12.8856 8.50706 13.028 8.24577C13.2188 7.89999 13.387 7.67529 13.5898 7.51836C13.8329 7.32474 14.1379 7.22098 14.4385 7.22793C14.7599 7.22428 15.0742 7.34091 15.3173 7.54894C15.5343 7.73248 15.7003 7.97455 15.9222 8.39634C16.2412 9.00655 16.5188 9.55715 17.0274 10.5801L17.1182 10.7629L17.1282 10.7831C18.2678 13.0808 19.3569 15.3876 20.3949 17.7031L20.4464 17.8205L20.4658 17.8645C20.6609 18.3068 20.7409 18.5077 20.8102 18.7568C20.9243 19.1706 20.9252 19.6122 20.8104 20.0125L20.8102 20.0132ZM13.2541 19.7955C13.3197 19.7231 13.3839 19.6498 13.4465 19.5758L13.4396 20.0324C13.3764 19.953 13.3146 19.8741 13.2541 19.7955ZM15.6159 19.7977C15.5561 19.8767 15.4946 19.9568 15.4316 20.038L15.4156 19.5773C15.4842 19.654 15.5508 19.7273 15.6159 19.7977ZM14.4334 18.3505C14.538 18.4966 14.6198 18.6031 14.7126 18.7145L14.4383 18.945L14.1539 18.7269C14.2515 18.5987 14.3446 18.4734 14.4334 18.3505ZM14.4334 18.3505C14.9864 17.5846 15.3713 16.9117 15.6321 16.2145C15.8291 15.6785 15.9111 15.2015 15.862 14.764C15.8229 14.4218 15.6684 14.1086 15.433 13.9044C14.9404 13.471 14.1424 13.4237 13.5828 13.7915C13.359 13.9367 13.1833 14.1569 13.0909 14.4119C12.9934 14.6687 12.9705 14.9763 13.0119 15.3337C13.0604 15.7197 13.1821 16.1187 13.3756 16.5605C13.5787 17.0188 13.8385 17.4774 14.1589 17.9561L14.1769 17.9823L14.2078 18.0272C14.2967 18.1566 14.3693 18.261 14.4334 18.3505Z" fill="white"/>
</g>
</svg>
