<svg width="29" height="28" viewBox="0 0 29 28" fill="none" xmlns="http://www.w3.org/2000/svg">
<g id="Frame 16">
<rect x="0.716675" y="0.334961" width="27.4333" height="27.4333" rx="10.2875" fill="#1F8DED"/>
<path id="Fill-1" fill-rule="evenodd" clip-rule="evenodd" d="M13.6852 6.56996C13.6852 6.15678 14.0202 5.82178 14.4334 5.82178C14.8466 5.82178 15.1816 6.15678 15.1816 6.56996V17.4186C15.1816 17.8318 14.8466 18.1668 14.4334 18.1668C14.0202 18.1668 13.6852 17.8318 13.6852 17.4186V6.56996ZM10.6924 6.20032C10.2792 6.20032 9.94422 6.53532 9.94422 6.9485V16.9438C9.94422 17.357 10.2792 17.692 10.6924 17.692C11.1056 17.692 11.4406 17.357 11.4406 16.9438V6.9485C11.4406 6.53532 11.1056 6.20032 10.6924 6.20032ZM21.9153 15.9223C22.3285 15.9223 22.6635 15.5873 22.6635 15.1741V8.445C22.6635 8.03182 22.3285 7.69682 21.9153 7.69682C21.5022 7.69682 21.1672 8.03182 21.1672 8.445V15.1741C21.1672 15.5873 21.5022 15.9223 21.9153 15.9223ZM14.4335 22.282C19.5151 22.282 22.2867 19.9563 22.4023 19.8573C22.716 19.5884 22.7523 19.1161 22.4833 18.8022C22.2145 18.4883 21.7413 18.4523 21.4282 18.7212C21.4043 18.7418 18.9674 20.7856 14.4335 20.7856C9.95558 20.7856 7.48078 18.7564 7.43683 18.7197C7.12297 18.4521 6.6518 18.4891 6.38357 18.8022C6.1146 19.1161 6.15108 19.5884 6.46457 19.8573C6.58016 19.9563 9.3518 22.282 14.4335 22.282ZM6.20343 8.445C6.20343 8.03182 6.53843 7.69682 6.95161 7.69682C7.3648 7.69682 7.69979 8.03182 7.69979 8.445V15.1741C7.69979 15.5873 7.3648 15.9223 6.95161 15.9223C6.53843 15.9223 6.20343 15.5873 6.20343 15.1741V8.445ZM18.1743 6.20032C17.7611 6.20032 17.4261 6.53532 17.4261 6.9485V16.9438C17.4261 17.357 17.7611 17.692 18.1743 17.692C18.5875 17.692 18.9225 17.357 18.9225 16.9438V6.9485C18.9225 6.53532 18.5875 6.20032 18.1743 6.20032Z" fill="white"/>
</g>
</svg>
