<svg width="29" height="28" viewBox="0 0 29 28" fill="none" xmlns="http://www.w3.org/2000/svg">
<g id="Frame 17">
<rect x="0.716675" y="0.0698242" width="27.4333" height="27.4333" rx="10.2875" fill="#F7931A"/>
<path id="Shape" fill-rule="evenodd" clip-rule="evenodd" d="M21.6677 11.7498C21.9903 9.59328 20.3484 8.43399 18.1033 7.66062L18.8315 4.73935L17.0534 4.29619L16.3443 7.14048C15.8768 7.024 15.3967 6.91409 14.9196 6.8052L15.6337 3.94218L13.8566 3.49902L13.1278 6.41928C12.7408 6.33116 12.361 6.24405 11.9923 6.15238L11.9943 6.14326L9.54203 5.53095L9.06899 7.43018C9.06899 7.43018 10.3883 7.73254 10.3605 7.75128C11.0807 7.93107 11.2108 8.40765 11.189 8.78547L10.3595 12.1134C10.4091 12.1261 10.4734 12.1443 10.5443 12.1727L10.4841 12.1576C10.4428 12.1473 10.4001 12.1366 10.3564 12.1261L9.19358 16.7881C9.10546 17.0069 8.88211 17.335 8.37868 17.2105C8.39641 17.2363 7.08619 16.8878 7.08619 16.8878L6.20343 18.9233L8.51745 19.5002C8.77567 19.5649 9.03079 19.6314 9.28325 19.6972L9.28372 19.6974L9.28448 19.6976C9.4525 19.7414 9.61934 19.7849 9.78513 19.8273L9.04924 22.782L10.8254 23.2252L11.5542 20.3019C12.0394 20.4336 12.5104 20.5551 12.9713 20.6696L12.245 23.5792L14.0232 24.0224L14.7591 21.0732C17.7913 21.6471 20.0714 21.4156 21.0311 18.6731C21.8045 16.4649 20.9926 15.1912 19.3973 14.3606C20.5591 14.0927 21.4342 13.3284 21.6677 11.7498ZM17.6047 17.4468C17.1005 19.4727 13.9295 18.6352 12.4785 18.252C12.348 18.2175 12.2314 18.1867 12.1319 18.162L13.1083 14.2475C13.2295 14.2778 13.3775 14.311 13.5452 14.3486C15.0459 14.6853 18.1213 15.3754 17.6047 17.4468ZM13.8467 12.5321C15.0564 12.8549 17.6951 13.5591 18.1547 11.7178C18.6241 9.83445 16.0595 9.26671 14.807 8.98944C14.6661 8.95825 14.5418 8.93074 14.4403 8.90544L13.555 12.4557C13.6387 12.4766 13.7368 12.5028 13.8467 12.5321Z" fill="white"/>
</g>
</svg>
