<svg width="11" height="11" viewBox="0 0 11 11" fill="none" xmlns="http://www.w3.org/2000/svg">
<g id="feather-icon / more-horizontal">
<path id="Oval" fill-rule="evenodd" clip-rule="evenodd" d="M5.66086 6.54168C6.10276 6.54168 6.461 6.18345 6.461 5.74155C6.461 5.29964 6.10276 4.94141 5.66086 4.94141C5.21895 4.94141 4.86072 5.29964 4.86072 5.74155C4.86072 6.18345 5.21895 6.54168 5.66086 6.54168Z" stroke="#422F8A" stroke-opacity="0.87" stroke-width="0.800139" stroke-linecap="round" stroke-linejoin="round"/>
<path id="Oval_2" fill-rule="evenodd" clip-rule="evenodd" d="M8.86142 6.54168C9.30332 6.54168 9.66156 6.18345 9.66156 5.74155C9.66156 5.29964 9.30332 4.94141 8.86142 4.94141C8.41951 4.94141 8.06128 5.29964 8.06128 5.74155C8.06128 6.18345 8.41951 6.54168 8.86142 6.54168Z" stroke="#422F8A" stroke-opacity="0.87" stroke-width="0.800139" stroke-linecap="round" stroke-linejoin="round"/>
<path id="Oval_3" fill-rule="evenodd" clip-rule="evenodd" d="M2.4603 6.54168C2.9022 6.54168 3.26043 6.18345 3.26043 5.74155C3.26043 5.29964 2.9022 4.94141 2.4603 4.94141C2.01839 4.94141 1.66016 5.29964 1.66016 5.74155C1.66016 6.18345 2.01839 6.54168 2.4603 6.54168Z" stroke="#422F8A" stroke-opacity="0.87" stroke-width="0.800139" stroke-linecap="round" stroke-linejoin="round"/>
</g>
</svg>
