<svg width="18" height="19" viewBox="0 0 18 19" fill="none" xmlns="http://www.w3.org/2000/svg">
<g id="Iconly/Bold/Notification">
<g id="Notification">
<path id="Notification_2" fill-rule="evenodd" clip-rule="evenodd" d="M13.9056 7.41762C13.9056 8.33576 14.1483 8.87693 14.6823 9.50056C15.087 9.95999 15.2163 10.5498 15.2163 11.1896C15.2163 11.8287 15.0063 12.4354 14.5857 12.9279C14.0349 13.5184 13.2582 13.8954 12.4656 13.9609C11.3169 14.0589 10.1675 14.1413 9.0028 14.1413C7.83741 14.1413 6.68872 14.092 5.54004 13.9609C4.74664 13.8954 3.96995 13.5184 3.41995 12.9279C2.99928 12.4354 2.78857 11.8287 2.78857 11.1896C2.78857 10.5498 2.91863 9.95999 3.32259 9.50056C3.87332 8.87693 4.10001 8.33576 4.10001 7.41762V7.10618C4.10001 5.87659 4.40661 5.07258 5.03799 4.2855C5.9767 3.13764 7.4814 2.44922 8.97011 2.44922H9.0355C10.5562 2.44922 12.1096 3.17077 13.0323 4.36796C13.631 5.13884 13.9056 5.90899 13.9056 7.10618V7.41762ZM6.86316 15.6525C6.86316 15.2844 7.20101 15.1158 7.51343 15.0436C7.87888 14.9663 10.1058 14.9663 10.4712 15.0436C10.7837 15.1158 11.1215 15.2844 11.1215 15.6525C11.1033 16.003 10.8977 16.3137 10.6136 16.511C10.2453 16.7982 9.81297 16.98 9.36106 17.0455C9.11112 17.0779 8.86555 17.0787 8.62433 17.0455C8.17169 16.98 7.73939 16.7982 7.37175 16.5103C7.08694 16.3137 6.88132 16.003 6.86316 15.6525Z" fill="#606060"/>
</g>
</g>
</svg>
