<svg width="18" height="18" viewBox="0 0 18 18" fill="none" xmlns="http://www.w3.org/2000/svg">
<g id="Iconly/Bold/Setting">
<g id="Setting">
<path id="Setting_2" fill-rule="evenodd" clip-rule="evenodd" d="M15.2653 10.0094C15.5204 10.1449 15.7172 10.3589 15.8557 10.5728C16.1253 11.015 16.1035 11.557 15.8411 12.0348L15.3309 12.8906C15.0613 13.3471 14.5584 13.6323 14.0409 13.6323C13.7858 13.6323 13.5016 13.561 13.2683 13.4184C13.0789 13.2971 12.8602 13.2543 12.627 13.2543C11.9054 13.2543 11.3005 13.8463 11.2787 14.5523C11.2787 15.3724 10.6081 16.0143 9.76999 16.0143H8.77878C7.93335 16.0143 7.26283 15.3724 7.26283 14.5523C7.24825 13.8463 6.64333 13.2543 5.92179 13.2543C5.68128 13.2543 5.46263 13.2971 5.28042 13.4184C5.0472 13.561 4.75567 13.6323 4.50787 13.6323C3.98311 13.6323 3.48023 13.3471 3.21056 12.8906L2.70767 12.0348C2.43801 11.5713 2.42343 11.015 2.69309 10.5728C2.80971 10.3589 3.02835 10.1449 3.27615 10.0094C3.48023 9.90959 3.61141 9.74557 3.73531 9.55301C4.09973 8.93969 3.88108 8.13381 3.26158 7.7701C2.54004 7.36359 2.30682 6.45787 2.72225 5.75184L3.21056 4.9103C3.63328 4.20427 4.53702 3.95466 5.26585 4.3683C5.89992 4.71062 6.7235 4.4824 7.0952 3.87621C7.21181 3.67652 7.2774 3.46257 7.26283 3.24862C7.24825 2.97049 7.32842 2.70662 7.4669 2.49267C7.73656 2.05051 8.22488 1.76524 8.75692 1.75098H9.78456C10.3239 1.75098 10.8122 2.05051 11.0819 2.49267C11.2131 2.70662 11.3005 2.97049 11.2787 3.24862C11.2641 3.46257 11.3297 3.67652 11.4463 3.87621C11.818 4.4824 12.6416 4.71062 13.2829 4.3683C14.0045 3.95466 14.9155 4.20427 15.3309 4.9103L15.8192 5.75184C16.242 6.45787 16.0087 7.36359 15.2799 7.7701C14.6604 8.13381 14.4418 8.93969 14.8135 9.55301C14.9301 9.74557 15.0613 9.90959 15.2653 10.0094ZM7.21182 8.88978C7.21182 10.0095 8.13743 10.9009 9.28168 10.9009C10.4259 10.9009 11.3297 10.0095 11.3297 8.88978C11.3297 7.77011 10.4259 6.87152 9.28168 6.87152C8.13743 6.87152 7.21182 7.77011 7.21182 8.88978Z" fill="#606060"/>
</g>
</g>
</svg>
