<svg width="14" height="15" viewBox="0 0 14 15" fill="none" xmlns="http://www.w3.org/2000/svg">
<g id="Car" clip-path="url(#clip0_1124_2437)">
<path id="Vector" d="M12.4667 8.55008V12.8001C12.4667 12.9504 12.407 13.0945 12.3007 13.2008C12.1944 13.307 12.0503 13.3667 11.9 13.3667H11.3333C11.183 13.3667 11.0389 13.307 10.9326 13.2008C10.8264 13.0945 10.7667 12.9504 10.7667 12.8001V12.2334H2.83333V12.8001C2.83333 12.9504 2.77363 13.0945 2.66736 13.2008C2.56109 13.307 2.41696 13.3667 2.26667 13.3667H1.7C1.54971 13.3667 1.40558 13.307 1.29931 13.2008C1.19304 13.0945 1.13333 12.9504 1.13333 12.8001V8.55008L0.428967 8.37441C0.306427 8.34372 0.197658 8.27295 0.119938 8.17337C0.0422179 8.07378 3.32091e-06 7.95108 0 7.82475L0 7.41675C0 7.3416 0.0298511 7.26954 0.0829864 7.2164C0.136122 7.16327 0.208189 7.13342 0.283333 7.13342H1.34583L2.55737 3.90228C2.63836 3.68621 2.78338 3.50001 2.97305 3.36857C3.16271 3.23713 3.38798 3.16672 3.61873 3.16675H9.98127C10.212 3.16672 10.4373 3.23713 10.627 3.36857C10.8166 3.50001 10.9616 3.68621 11.0426 3.90228L12.2542 7.13342H13.3167C13.3918 7.13342 13.4639 7.16327 13.517 7.2164C13.5701 7.26954 13.6 7.3416 13.6 7.41675V7.82475C13.6 7.95108 13.5578 8.07378 13.4801 8.17337C13.4023 8.27295 13.2936 8.34372 13.171 8.37441L12.4667 8.55008ZM2.26667 9.40008V10.5334C2.26667 10.6837 2.32637 10.8278 2.43264 10.9341C2.53891 11.0404 2.68304 11.1001 2.83333 11.1001H4.67217C4.72109 11.1 4.76917 11.0873 4.81171 11.0631C4.85424 11.0389 4.8898 11.0041 4.9149 10.9621C4.94001 10.9201 4.95381 10.8724 4.95497 10.8234C4.95612 10.7745 4.94459 10.7262 4.9215 10.683C4.46533 9.82735 3.5802 9.40008 2.26667 9.40008ZM11.3333 9.40008C10.0204 9.40008 9.13523 9.82792 8.67793 10.683C8.65482 10.7262 8.64329 10.7746 8.64447 10.8236C8.64565 10.8725 8.6595 10.9204 8.68468 10.9624C8.70985 11.0044 8.74548 11.0392 8.7881 11.0633C8.83071 11.0874 8.87886 11.1001 8.92783 11.1001H10.7667C10.917 11.1001 11.0611 11.0404 11.1674 10.9341C11.2736 10.8278 11.3333 10.6837 11.3333 10.5334V9.40008ZM3.4 4.30008L2.51543 6.95435C2.48708 7.03949 2.47934 7.13015 2.49288 7.21887C2.50641 7.30758 2.54082 7.39182 2.59327 7.46463C2.64573 7.53745 2.71473 7.59676 2.79459 7.6377C2.87445 7.67863 2.96289 7.70001 3.05263 7.70008H10.5474C10.6371 7.70001 10.7256 7.67863 10.8054 7.6377C10.8853 7.59676 10.9543 7.53745 11.0067 7.46463C11.0592 7.39182 11.0936 7.30758 11.1071 7.21887C11.1207 7.13015 11.1129 7.03949 11.0846 6.95435L10.2 4.30008H3.4Z" fill="white"/>
</g>
<defs>
<clipPath id="clip0_1124_2437">
<rect width="13.6" height="13.6" fill="white" transform="translate(0 0.900146)"/>
</clipPath>
</defs>
</svg>
