<svg width="35" height="26" viewBox="0 0 35 26" fill="none" xmlns="http://www.w3.org/2000/svg">
<g id="Chip" opacity="0.9">
<path id="Vector" d="M0.317016 4.0966L0.317016 21.1939C0.317017 23.3963 2.53735 25.1875 5.26755 25.1875L29.8554 25.1875C32.5862 25.1875 34.8072 23.3958 34.8072 21.1939L34.8072 4.0966C34.8072 1.89418 32.5856 0.103999 29.8554 0.103999L5.26755 0.104C2.53735 0.104519 0.317016 1.8947 0.317016 4.0966ZM29.8554 0.42426C32.3671 0.42426 34.4101 2.07193 34.4101 4.0966L34.4101 21.1939C34.4101 23.2196 32.3671 24.8672 29.8554 24.8672L5.26755 24.8672C2.7571 24.8672 0.714116 23.2196 0.714116 21.1939L0.714115 4.0966C0.714115 2.07193 2.7571 0.424261 5.26755 0.424261L29.8554 0.42426Z" fill="#3F3F46"/>
<path id="Vector_2" d="M5.26754 0.423479L29.855 0.423478C31.0624 0.423821 32.2202 0.810622 33.0742 1.49893C33.9282 2.18725 34.4086 3.12079 34.4098 4.09452L34.4098 21.1931C34.4098 23.2188 32.3668 24.8665 29.855 24.8665L5.26754 24.8665C2.7571 24.8665 0.714111 23.2188 0.714111 21.1931L0.71411 4.09452C0.71411 2.07115 2.7571 0.423479 5.26754 0.423479Z" fill="url(#paint0_linear_1124_1323)"/>
<path id="Vector_3" d="M34.7415 7.00151L34.7415 7.32177L23.4191 7.32177C22.6688 7.32245 21.9494 7.56315 21.4188 7.99105C20.8883 8.41895 20.5898 8.99911 20.589 9.60425L20.589 15.6863C20.5898 16.2914 20.8883 16.8716 21.4189 17.2995C21.9494 17.7274 22.6688 17.9681 23.4191 17.9688L34.7415 17.9688L34.7415 18.2893L23.4191 18.2893C22.5635 18.2885 21.7431 18.014 21.1381 17.526C20.5331 17.038 20.1928 16.3764 20.1919 15.6863L20.1919 9.60425C20.1928 8.91419 20.5331 8.25261 21.1381 7.76467C21.7432 7.27672 22.5635 7.00226 23.4191 7.00151L34.7415 7.00151Z" fill="#383335"/>
<path id="Vector_4" d="M13.6181 9.60425L13.6181 15.6863C13.6172 16.3764 13.2768 17.0381 12.6717 17.5261C12.0667 18.0141 11.2463 18.2886 10.3906 18.2893L0.334656 18.2893L0.334656 17.9688L10.3906 17.9688C11.141 17.9682 11.8604 17.7275 12.391 17.2996C12.9217 16.8717 13.2201 16.2915 13.221 15.6863L13.221 9.60425C13.2201 8.99908 12.9215 8.41893 12.3909 7.99103C11.8603 7.56314 11.1409 7.32245 10.3906 7.32177L0.334655 7.32177L0.334655 7.00151L10.3906 7.00151C11.2462 7.00219 12.0666 7.27662 12.6717 7.76457C13.2768 8.25253 13.6172 8.91415 13.6181 9.60425Z" fill="#383335"/>
<path id="Vector_5" d="M13.4197 15.2425L13.4197 15.5627L20.3904 15.5627L20.3904 15.2425L13.4197 15.2425Z" fill="#383335"/>
<path id="Vector_6" d="M13.4197 9.72784L13.4197 10.0481L20.3904 10.0481L20.3904 9.72784L13.4197 9.72784Z" fill="#383335"/>
<path id="Vector_7" d="M25.7909 0.263395L25.7909 7.16138L26.188 7.16138L26.188 0.263395L25.7909 0.263395Z" fill="#383335"/>
<path id="Vector_8" d="M25.7904 18.1291L25.7904 25.0273L26.1875 25.0273L26.1875 18.1291L25.7904 18.1291Z" fill="#383335"/>
<path id="Vector_9" d="M8.19806 0.263394L8.19806 7.16138L8.59515 7.16138L8.59515 0.263394L8.19806 0.263394Z" fill="#383335"/>
<path id="Vector_10" d="M8.19806 18.1291L8.19806 25.0273L8.59515 25.0273L8.59515 18.1291L8.19806 18.1291Z" fill="#383335"/>
<path id="Vector_11" d="M0.515015 12.4551L0.515015 12.7754L13.419 12.7754L13.419 12.4551L0.515015 12.4551Z" fill="#383335"/>
<path id="Vector_12" d="M20.5165 12.4551L20.5165 12.7754L34.7445 12.7754L34.7445 12.4551L20.5165 12.4551Z" fill="#383335"/>
</g>
<defs>
<linearGradient id="paint0_linear_1124_1323" x1="0.714111" y1="12.645" x2="34.4098" y2="12.645" gradientUnits="userSpaceOnUse">
<stop stop-color="#FFDD58"/>
<stop offset="0.546875" stop-color="#F8C30C"/>
<stop offset="1" stop-color="#FB902A"/>
</linearGradient>
</defs>
</svg>
