<svg width="17" height="13" viewBox="0 0 17 13" fill="none" xmlns="http://www.w3.org/2000/svg">
<g id="White 01">
<g id="Union">
<path fill-rule="evenodd" clip-rule="evenodd" d="M0.872459 2.25907C0.882728 1.15852 1.76864 0.274546 2.8512 0.284647L14.6121 0.394385C15.6947 0.404486 16.5639 1.30484 16.5537 2.40538L16.477 10.6246C16.4667 11.7252 15.5808 12.6092 14.4982 12.5991L2.73732 12.4893C1.65476 12.4792 0.785499 11.5789 0.795767 10.4783L0.872459 2.25907ZM11.6125 0.751229L14.6085 0.779184C15.482 0.787334 16.1834 1.51383 16.1751 2.40185L16.1605 3.97112L11.5829 3.92841L11.6125 0.751229ZM11.234 0.747697L2.84761 0.669446C1.9741 0.661296 1.25926 1.37457 1.25097 2.2626L1.23633 3.83185L5.26815 3.86947C5.91396 3.8755 6.43252 4.41261 6.42639 5.06914L6.36043 12.1383L11.1273 12.1828L11.234 0.747697ZM11.5058 12.1863L14.5018 12.2143C15.3753 12.2224 16.0902 11.5091 16.0985 10.6211L16.102 10.2378L11.5244 10.195L11.5058 12.1863ZM16.1056 9.85296L16.1295 7.29684L11.5518 7.25412L11.528 9.81024L16.1056 9.85296ZM16.1331 6.91204L16.1569 4.35592L11.5793 4.3132L11.5554 6.86932L16.1331 6.91204ZM5.98192 12.1348L6.0005 10.1435L1.17786 10.0985L1.17428 10.4818C1.16599 11.3699 1.8674 12.0964 2.74091 12.1045L5.98192 12.1348ZM1.18145 9.71369L6.00409 9.75869L6.02794 7.20257L1.2053 7.15757L1.18145 9.71369ZM1.20889 6.77277L6.03153 6.81777L6.04788 5.0656C6.05202 4.62159 5.70132 4.25835 5.26456 4.25427L1.23274 4.21665L1.20889 6.77277Z" fill="white"/>
<path d="M11.234 0.747697L2.84761 0.669446C1.9741 0.661296 1.25926 1.37457 1.25097 2.2626L1.23633 3.83185L5.26815 3.86947C5.91396 3.8755 6.43252 4.41261 6.42639 5.06914L6.36043 12.1383L11.1273 12.1828L11.234 0.747697Z" fill="white" fill-opacity="0.26"/>
<path d="M6.03153 6.81777L1.20889 6.77277L1.23274 4.21665L5.26456 4.25427C5.70132 4.25835 6.05202 4.62159 6.04788 5.0656L6.03153 6.81777Z" fill="white" fill-opacity="0.26"/>
<path d="M6.00409 9.75869L1.18145 9.71369L1.2053 7.15757L6.02794 7.20257L6.00409 9.75869Z" fill="white" fill-opacity="0.26"/>
<path d="M6.0005 10.1435L5.98192 12.1348L2.74091 12.1045C1.8674 12.0964 1.16599 11.3699 1.17428 10.4818L1.17786 10.0985L6.0005 10.1435Z" fill="white" fill-opacity="0.26"/>
<path d="M14.6085 0.779184L11.6125 0.751229L11.5829 3.92841L16.1605 3.97112L16.1751 2.40185C16.1834 1.51383 15.482 0.787334 14.6085 0.779184Z" fill="white" fill-opacity="0.26"/>
<path d="M16.1331 6.91204L16.1569 4.35592L11.5793 4.3132L11.5554 6.86932L16.1331 6.91204Z" fill="white" fill-opacity="0.26"/>
<path d="M16.1056 9.85296L16.1295 7.29684L11.5518 7.25412L11.528 9.81024L16.1056 9.85296Z" fill="white" fill-opacity="0.26"/>
<path d="M11.5058 12.1863L14.5018 12.2143C15.3753 12.2224 16.0902 11.5091 16.0985 10.6211L16.102 10.2378L11.5244 10.195L11.5058 12.1863Z" fill="white" fill-opacity="0.26"/>
</g>
</g>
</svg>
