<svg width="44" height="44" viewBox="0 0 44 44" fill="none" xmlns="http://www.w3.org/2000/svg">
<g id="deposit">
<circle id="Ellipse 195" cx="22.1232" cy="21.9406" r="21.6232" fill="#3921F5"/>
<g id="Wallet">
<path id="Fill 1" fill-rule="evenodd" clip-rule="evenodd" d="M27.7379 24.3136H25.3629C24.2499 24.3136 23.344 23.4087 23.3434 22.2968C23.3434 21.1837 24.2493 20.2782 25.3629 20.2776H27.7379C27.9808 20.2776 28.1779 20.4746 28.1779 20.7174C28.1779 20.9602 27.9808 21.1573 27.7379 21.1573H25.3629C24.7345 21.1579 24.2235 21.6687 24.2235 22.2962C24.2235 22.9231 24.7351 23.4339 25.3629 23.4339H27.7379C27.9808 23.4339 28.1779 23.6309 28.1779 23.8737C28.1779 24.1165 27.9808 24.3136 27.7379 24.3136Z" fill="#FAFCFE"/>
<path id="Fill 3" fill-rule="evenodd" clip-rule="evenodd" d="M25.6308 22.7001H25.4478C25.2049 22.7001 25.0078 22.503 25.0078 22.2601C25.0078 22.0172 25.2049 21.8201 25.4478 21.8201H25.6308C25.8737 21.8201 26.0709 22.0172 26.0709 22.2601C26.0709 22.503 25.8737 22.7001 25.6308 22.7001Z" fill="#FAFCFE"/>
<g id="Group 7">
<mask id="mask0_1124_1397" style="mask-type:luminance" maskUnits="userSpaceOnUse" x="16" y="16" width="13" height="12">
<path id="Clip 6" fill-rule="evenodd" clip-rule="evenodd" d="M16.0687 16.751H28.1777V27.9951H16.0687V16.751Z" fill="white"/>
</mask>
<g mask="url(#mask0_1124_1397)">
<path id="Fill 5" fill-rule="evenodd" clip-rule="evenodd" d="M19.5872 17.6307C18.1321 17.6307 16.9481 18.8141 16.9481 20.2685V24.4775C16.9481 25.932 18.1321 27.1154 19.5872 27.1154H24.6587C26.1138 27.1154 27.2972 25.932 27.2972 24.4775V20.2685C27.2972 18.8141 26.1138 17.6307 24.6587 17.6307H19.5872ZM24.659 27.9951H19.5874C17.6472 27.9951 16.0683 26.417 16.0683 24.4775V20.2685C16.0683 18.3285 17.6472 16.751 19.5874 16.751H24.659C26.5993 16.751 28.1775 18.3285 28.1775 20.2685V24.4775C28.1775 26.417 26.5993 27.9951 24.659 27.9951Z" fill="#FAFCFE"/>
</g>
</g>
<path id="Fill 8" fill-rule="evenodd" clip-rule="evenodd" d="M22.338 20.2924H19.1703C18.9274 20.2924 18.7303 20.0953 18.7303 19.8524C18.7303 19.6095 18.9274 19.4124 19.1703 19.4124H22.338C22.5809 19.4124 22.778 19.6095 22.778 19.8524C22.778 20.0953 22.5809 20.2924 22.338 20.2924Z" fill="#FAFCFE"/>
</g>
</g>
</svg>
