<svg width="139" height="140" viewBox="0 0 139 140" fill="none" xmlns="http://www.w3.org/2000/svg">
<g id="Ellipse">
<g id="Ellipse 12" filter="url(#filter0_i_1319_112)">
<path d="M138.855 70.3862C138.855 108.601 107.876 139.581 69.6611 139.581C31.4461 139.581 0.466797 108.601 0.466797 70.3862C0.466797 32.1712 31.4461 1.19189 69.6611 1.19189C107.876 1.19189 138.855 32.1712 138.855 70.3862ZM19.8913 70.3862C19.8913 97.8733 42.174 120.156 69.6611 120.156C97.1482 120.156 119.431 97.8733 119.431 70.3862C119.431 42.8991 97.1482 20.6164 69.6611 20.6164C42.174 20.6164 19.8913 42.8991 19.8913 70.3862Z" fill="#FAFCFE"/>
</g>
<path id="Ellipse 15" d="M131.535 42.6318C132.411 42.251 133.433 42.652 133.791 43.5374C138.078 54.116 139.684 65.6 138.454 76.9655C137.162 88.9048 132.785 100.302 125.753 110.037C118.721 119.772 109.277 127.51 98.3489 132.489C87.9459 137.228 76.5391 139.313 65.1494 138.569C64.1961 138.506 63.4945 137.663 63.5806 136.711L64.7151 124.175C64.8012 123.223 65.6423 122.525 66.5961 122.58C75.211 123.077 83.8272 121.47 91.6957 117.885C100.089 114.061 107.343 108.118 112.744 100.641C118.145 93.1636 121.507 84.4094 122.499 75.2391C123.43 66.6426 122.248 57.9579 119.067 49.9359C118.715 49.0478 119.114 48.0298 119.99 47.649L131.535 42.6318Z" fill="#26CF8E"/>
<path id="Ellipse 14" d="M16.1845 28.3912C15.4272 27.8087 14.3391 27.9493 13.7758 28.7209C7.01396 37.9826 2.65443 48.788 1.10188 60.1681C-0.528686 72.12 0.993556 84.2906 5.51763 95.4727C10.0417 106.655 17.4104 116.46 26.893 123.916C35.9218 131.015 46.5684 135.749 57.8681 137.703C58.8095 137.866 59.6892 137.211 59.8284 136.266L61.672 123.751C61.8112 122.806 61.1572 121.93 60.2171 121.76C51.6956 120.219 43.6709 116.616 36.8498 111.252C29.5748 105.532 23.9216 98.0099 20.4508 89.431C16.9799 80.8522 15.8121 71.5151 17.063 62.3457C18.236 53.7482 21.4972 45.5782 26.5502 38.5457C27.1077 37.7698 26.9684 36.6854 26.2111 36.1029L16.1845 28.3912Z" fill="#D4767F"/>
<path id="Ellipse 13" d="M130.402 41.0259C131.262 40.6101 131.624 39.5746 131.187 38.7251C126.236 29.1042 119.094 20.7708 110.326 14.4024C101.092 7.69496 90.3424 3.37578 79.0344 1.82971C67.7265 0.283639 56.2117 1.5587 45.5159 5.54129C35.361 9.3225 26.2438 15.4329 18.8921 23.3717C18.243 24.0727 18.3139 25.1674 19.0309 25.7988L28.5238 34.1588C29.2408 34.7902 30.3319 34.7187 30.9863 34.0226C36.5782 28.0753 43.4724 23.4917 51.1371 20.6377C59.3428 17.5823 68.1769 16.6041 76.8522 17.7902C85.5276 18.9764 93.7749 22.29 100.859 27.4359C107.477 32.2426 112.887 38.5086 116.678 45.7387C117.121 46.5849 118.153 46.9466 119.013 46.5308L130.402 41.0259Z" fill="#3921F5"/>
</g>
<defs>
<filter id="filter0_i_1319_112" x="0.466797" y="1.19189" width="138.389" height="141.848" filterUnits="userSpaceOnUse" color-interpolation-filters="sRGB">
<feFlood flood-opacity="0" result="BackgroundImageFix"/>
<feBlend mode="normal" in="SourceGraphic" in2="BackgroundImageFix" result="shape"/>
<feColorMatrix in="SourceAlpha" type="matrix" values="0 0 0 0 0 0 0 0 0 0 0 0 0 0 0 0 0 0 127 0" result="hardAlpha"/>
<feOffset dy="3.45972"/>
<feGaussianBlur stdDeviation="1.72986"/>
<feComposite in2="hardAlpha" operator="arithmetic" k2="-1" k3="1"/>
<feColorMatrix type="matrix" values="0 0 0 0 0 0 0 0 0 0 0 0 0 0 0 0 0 0 0.25 0"/>
<feBlend mode="normal" in2="shape" result="effect1_innerShadow_1319_112"/>
</filter>
</defs>
</svg>
