<svg width="15" height="15" viewBox="0 0 15 15" fill="none" xmlns="http://www.w3.org/2000/svg">
<g id="Gamepad" clip-path="url(#clip0_1124_2447)">
<path id="Vector" d="M10.4334 3.16675C11.3351 3.16675 12.1999 3.52496 12.8375 4.16259C13.4752 4.80021 13.8334 5.66501 13.8334 6.56675V8.83341C13.8334 9.73515 13.4752 10.6 12.8375 11.2376C12.1999 11.8752 11.3351 12.2334 10.4334 12.2334H4.7667C3.86496 12.2334 3.00016 11.8752 2.36254 11.2376C1.72491 10.6 1.3667 9.73515 1.3667 8.83341V6.56675C1.3667 5.66501 1.72491 4.80021 2.36254 4.16259C3.00016 3.52496 3.86496 3.16675 4.7667 3.16675H10.4334ZM6.4667 6.00008H5.33337V7.13341H4.20003V8.26675H5.3328L5.33337 9.40008H6.4667L6.46613 8.26675H7.60003V7.13341H6.4667V6.00008ZM11 8.26675H9.8667V9.40008H11V8.26675ZM9.8667 6.00008H8.73337V7.13341H9.8667V6.00008Z" fill="white"/>
</g>
<defs>
<clipPath id="clip0_1124_2447">
<rect width="13.6" height="13.6" fill="white" transform="translate(0.800049 0.900146)"/>
</clipPath>
</defs>
</svg>
