<svg width="19" height="19" viewBox="0 0 19 19" fill="none" xmlns="http://www.w3.org/2000/svg">
<g id="Iconly/Bold/Home">
<g id="Home">
<path id="Home_2" d="M7.47749 15.8331V13.6292C7.47749 13.0666 7.93691 12.6105 8.50362 12.6105H10.5753C10.8474 12.6105 11.1084 12.7178 11.3008 12.9089C11.4933 13.0999 11.6014 13.359 11.6014 13.6292V15.8331C11.5997 16.067 11.6921 16.2919 11.8581 16.4579C12.0241 16.6239 12.2499 16.7172 12.4855 16.7172H13.8989C14.559 16.7189 15.1926 16.4598 15.66 15.997C16.1274 15.5343 16.39 14.9059 16.39 14.2506V7.97199C16.39 7.44265 16.1537 6.94055 15.7447 6.60094L10.9367 2.78891C10.1003 2.12053 8.90198 2.14211 8.09059 2.84016L3.39231 6.60094C2.96397 6.93053 2.70796 7.43413 2.69531 7.97199V14.2442C2.69531 15.61 3.81063 16.7172 5.18643 16.7172H6.56752C7.05688 16.7172 7.45458 16.3253 7.45813 15.8395L7.47749 15.8331Z" fill="#606060"/>
</g>
</g>
</svg>
