<svg width="10" height="12" viewBox="0 0 10 12" fill="none" xmlns="http://www.w3.org/2000/svg">
<g id="Contactless Payment">
<g id="Subtract">
<path d="M1.22325 7.63904L1.22148 7.64137L1.21977 7.64375C1.12446 7.77609 0.913372 7.81327 0.749672 7.69533C0.618629 7.60091 0.580916 7.3929 0.694781 7.22985C0.864382 7.01772 0.98844 6.76903 1.07067 6.52556C1.15628 6.27208 1.19769 5.98354 1.19883 5.70017C1.19998 5.4168 1.16089 5.12794 1.07733 4.87379C0.997066 4.62967 0.875018 4.38 0.707133 4.16653C0.594587 4.00258 0.633976 3.79487 0.765776 3.7015C0.930422 3.58487 1.1412 3.62373 1.23545 3.75683L1.23714 3.75921L1.23888 3.76156C1.4477 4.04238 1.61821 4.35382 1.719 4.65874C1.82473 5.01733 1.89098 5.36387 1.88961 5.70292C1.88817 6.05972 1.85093 6.39708 1.71692 6.72829C1.57098 7.089 1.43034 7.36515 1.22325 7.63904Z" fill="white"/>
<path d="M2.74571 8.31546L2.7499 8.30965L2.75375 8.3036C3.22938 7.55703 3.50814 6.65341 3.51195 5.70937C3.51575 4.76558 3.24442 3.85998 2.77505 3.10975C2.67335 2.94506 2.72153 2.7519 2.89671 2.6278C3.01436 2.54446 3.23346 2.57639 3.362 2.75208C3.89182 3.61056 4.20702 4.64529 4.20272 5.71212C4.19827 6.81537 3.87533 7.81068 3.3381 8.66546C3.21411 8.83285 3.02626 8.87832 2.86554 8.7813C2.69154 8.65127 2.66156 8.4323 2.74571 8.31546Z" fill="white"/>
<path d="M5.55146 1.65055L5.556 1.65971L5.56126 1.66847C6.27889 2.86363 6.67105 4.23814 6.66506 5.72192C6.65908 7.20501 6.25623 8.57578 5.52961 9.76481C5.41828 9.94019 5.23264 9.98819 5.04572 9.89906C4.87591 9.78609 4.83173 9.6011 4.92272 9.41551C5.54128 8.3404 5.93153 7.07033 5.93698 5.71902C5.9424 4.37374 5.60261 3.09891 4.95128 2.0119C4.86352 1.82651 4.90955 1.64312 5.07944 1.53204C5.28404 1.43661 5.48181 1.50979 5.55146 1.65055Z" fill="white"/>
<path d="M7.71984 0.539678L7.72294 0.545936L7.72638 0.552013C8.5952 2.08706 9.09772 3.83751 9.09009 5.73157C9.08246 7.62368 8.56689 9.36842 7.68737 10.8954C7.57586 11.0687 7.3911 11.1159 7.20507 11.0271C7.03579 10.9145 6.99136 10.7304 7.08121 10.5454C7.92799 9.13034 8.39222 7.48616 8.39931 5.72882C8.40641 3.96695 7.91593 2.32026 7.12109 0.904012C7.02178 0.697424 7.095 0.496679 7.23699 0.426375C7.4454 0.323183 7.64896 0.396442 7.71984 0.539678Z" fill="white"/>
</g>
</g>
</svg>
