<svg width="16" height="20" viewBox="0 0 16 20" fill="none" xmlns="http://www.w3.org/2000/svg">
<g id="Iconly/Bold/Swap">
<g id="Swap">
<path id="Swap_2" fill-rule="evenodd" clip-rule="evenodd" d="M5.21034 3.02787C5.31814 3.12126 5.49199 3.33576 5.49199 3.33576C6.16691 4.09484 7.18346 5.98282 7.50991 6.94069C7.51674 6.94069 7.71034 7.51023 7.71793 7.78113V7.81719C7.71793 8.23232 7.52434 8.62064 7.21307 8.81943C7.08475 8.90139 6.77265 8.9776 6.62207 9.01437C6.5722 9.02655 6.54004 9.0344 6.53815 9.03671C6.09327 9.11807 5.41076 9.17169 4.66144 9.17169C3.87493 9.17169 3.16281 9.11807 2.72476 9.01821C2.71717 9.01821 2.31707 8.91928 2.18346 8.85549C1.99062 8.75656 1.8274 8.57534 1.72339 8.34974C1.64899 8.16945 1.61255 7.97899 1.61255 7.78113C1.61938 7.5731 1.73098 7.18478 1.78261 7.0313C2.10906 6.01888 3.17723 4.08559 3.83013 3.345C3.89796 3.26241 3.97514 3.17588 4.02885 3.11567C4.0575 3.08354 4.07947 3.05891 4.08978 3.04637C4.253 2.89289 4.45343 2.81152 4.66903 2.81152C4.86111 2.81152 5.05394 2.88364 5.21034 3.02787ZM12.14 8.38649C12.14 8.79424 11.8689 9.12432 11.5341 9.12432C11.1993 9.12432 10.9283 8.79424 10.9283 8.38649L10.7613 4.82217C10.7613 4.30255 11.1075 3.88185 11.5341 3.88185C11.9608 3.88185 12.3062 4.30255 12.3062 4.82217L12.14 8.38649ZM14.0156 10.7793C14.2084 10.8791 14.3716 11.0594 14.4756 11.285C14.55 11.4653 14.5865 11.6558 14.5865 11.8546C14.5796 12.0617 14.468 12.4509 14.4157 12.6044C14.09 13.6159 13.021 15.5493 12.3689 16.2908C12.3022 16.3714 12.2265 16.4561 12.173 16.5161L12.1729 16.5162L12.1729 16.5162C12.1429 16.5498 12.1199 16.5756 12.1092 16.5885C11.9453 16.742 11.7456 16.8234 11.5307 16.8234C11.3371 16.8234 11.1443 16.7512 10.9887 16.6061C10.8809 16.5136 10.707 16.2991 10.707 16.2991C10.0313 15.5409 9.01556 13.652 8.68911 12.6941C8.68151 12.6941 8.48868 12.1255 8.48109 11.8546V11.8185C8.48109 11.4024 8.67392 11.0141 8.98595 10.8153C9.114 10.7342 9.42509 10.6578 9.57602 10.6207L9.57604 10.6207L9.57605 10.6207L9.57606 10.6207L9.57618 10.6207C9.62649 10.6083 9.65897 10.6004 9.66087 10.598C10.1057 10.5167 10.7883 10.4631 11.5376 10.4631C12.3241 10.4631 13.0362 10.5167 13.4743 10.6165C13.4811 10.6165 13.8819 10.7155 14.0156 10.7793ZM4.665 10.5107C4.3302 10.5107 4.05917 10.8407 4.05917 11.2485L3.89215 14.8127C3.89215 15.3323 4.23834 15.753 4.665 15.753C5.09166 15.753 5.43709 15.3323 5.43709 14.8127L5.27083 11.2485C5.27083 10.8407 4.9998 10.5107 4.665 10.5107Z" fill="#3921F5"/>
</g>
</g>
</svg>
