<svg width="44" height="44" viewBox="0 0 44 44" fill="none" xmlns="http://www.w3.org/2000/svg">
<g id="transfer">
<circle id="Ellipse 195" cx="21.9549" cy="21.9406" r="21.6232" fill="#3921F5"/>
<g id="Send">
<mask id="mask0_1124_1388" style="mask-type:luminance" maskUnits="userSpaceOnUse" x="15" y="15" width="14" height="13">
<path id="Clip 2" fill-rule="evenodd" clip-rule="evenodd" d="M15.9005 15.886H28.0095V27.995H15.9005V15.886Z" fill="white"/>
</mask>
<g mask="url(#mask0_1124_1388)">
<path id="Fill 1" fill-rule="evenodd" clip-rule="evenodd" d="M21.3685 23.2247L23.6395 26.9092C23.7389 27.0706 23.8941 27.0688 23.9568 27.0601C24.0195 27.0514 24.1705 27.0129 24.2251 26.8297L27.065 17.2382C27.1146 17.0687 27.0234 16.9532 26.9824 16.9122C26.9426 16.8712 26.829 16.7837 26.6644 16.8302L17.0661 19.6409C16.8842 19.6943 16.8444 19.8471 16.8357 19.9098C16.8271 19.9738 16.8246 20.1321 16.9854 20.2333L20.7121 22.564L24.0046 19.2366C24.1854 19.0541 24.4803 19.0522 24.6635 19.2329C24.8467 19.4136 24.848 19.7092 24.6673 19.8918L21.3685 23.2247ZM23.9083 27.9953C23.4761 27.9953 23.0799 27.7755 22.8464 27.3979L20.4387 23.4912L16.4916 21.0227C16.0662 20.7562 15.8439 20.2818 15.9128 19.7831C15.9811 19.2845 16.3233 18.8883 16.804 18.7473L26.4023 15.9366C26.8438 15.8074 27.317 15.9298 27.6424 16.2539C27.9678 16.5812 28.0889 17.0594 27.9573 17.5028L25.1174 27.0936C24.9752 27.5761 24.5777 27.9171 24.0803 27.9835C24.0219 27.991 23.9654 27.9953 23.9083 27.9953Z" fill="#FAFCFE"/>
</g>
</g>
</g>
</svg>
