<svg width="7" height="10" viewBox="0 0 7 10" fill="none" xmlns="http://www.w3.org/2000/svg">
<path id="Vector" d="M5.83267 1.90872C5.65517 1.59391 5.39703 1.3319 5.08472 1.14957C4.77242 0.967243 4.41717 0.871147 4.05542 0.871137L3.66653 0.873396C3.14287 0.897834 2.64877 1.12279 2.28684 1.50154C1.92491 1.8803 1.72297 2.38374 1.72297 2.9073L1.72299 4.49262L1.04309 4.49261C0.862775 4.49261 0.689843 4.56415 0.56234 4.69149C0.434837 4.81883 0.363208 4.99155 0.36321 5.17164C0.363212 5.35173 0.434845 5.52445 0.562351 5.65179C0.689857 5.77913 0.862791 5.85068 1.04311 5.85068L1.723 5.85069L1.72301 6.98241C1.71667 7.20242 1.67633 7.42242 1.50183 7.57498C1.41118 7.65374 1.29786 7.68045 1.19225 7.73341C0.465681 8.09601 0.873176 9.19605 1.6614 8.99914C1.79465 8.96202 1.91975 8.90498 2.05437 8.87194C2.62185 8.74429 3.17166 8.86652 3.71331 9.03674C4.53779 9.28029 5.28703 9.26944 5.9225 9.09606C6.39797 8.9666 6.92285 8.60808 6.63728 8.03678C6.40748 7.57775 5.96192 7.65516 5.56487 7.78598C4.96974 7.94803 4.38503 7.82444 3.81165 7.64427C3.55689 7.57046 3.29665 7.51702 3.0334 7.48446C3.0648 7.31892 3.08133 7.15091 3.0828 6.98243L3.08279 5.8507L4.21594 5.85072C4.39626 5.85072 4.56919 5.77918 4.69669 5.65184C4.82419 5.5245 4.89582 5.35178 4.89582 5.17169C4.89582 4.9916 4.82419 4.81889 4.69668 4.69154C4.56917 4.5642 4.39624 4.49265 4.21592 4.49265L3.08277 4.49264L3.08275 2.90732C3.10042 2.53883 3.37918 2.2292 3.76263 2.2292L4.11935 2.23237C4.23417 2.24323 4.34434 2.28309 4.43949 2.34818C4.53464 2.41328 4.61165 2.50148 4.66327 2.60449L4.9996 3.26904C5.09199 3.41768 5.23827 3.52496 5.40792 3.56853C5.57757 3.6121 5.75752 3.58859 5.91024 3.5029C6.06296 3.41721 6.17667 3.27595 6.22766 3.10858C6.27866 2.94121 6.263 2.76064 6.18396 2.60451L5.83267 1.90872Z" fill="#FAFCFE"/>
</svg>
