<svg width="57" height="19" viewBox="0 0 57 19" fill="none" xmlns="http://www.w3.org/2000/svg">
<g id="visa 1">
<g id="Group">
<path id="Vector" d="M24.8046 18.1194H20.1994L23.0776 0.430816H27.6833L24.8046 18.1194ZM16.3251 0.430816L11.9347 12.5972L11.4151 9.97728L11.4156 9.97823L9.86602 2.02347C9.86602 2.02347 9.67865 0.430816 7.68145 0.430816H0.423182L0.338013 0.730326C0.338013 0.730326 2.5576 1.19213 5.15525 2.75214L9.15628 18.1199H13.9546L21.2815 0.430816H16.3251ZM52.5478 18.1194H56.7765L53.0896 0.430343H49.3876C47.6781 0.430343 47.2617 1.74857 47.2617 1.74857L40.3933 18.1194H45.194L46.154 15.492H52.0084L52.5478 18.1194ZM47.4803 11.8623L49.9 5.24285L51.2613 11.8623H47.4803ZM40.7534 4.68452L41.4106 0.885995C41.4106 0.885995 39.3827 0.114746 37.2686 0.114746C34.9832 0.114746 29.5561 1.11359 29.5561 5.97057C29.5561 10.5403 35.9258 10.5971 35.9258 12.9975C35.9258 15.3978 30.2123 14.9677 28.3268 13.4541L27.6421 17.4258C27.6421 17.4258 29.6985 18.4246 32.8403 18.4246C35.983 18.4246 40.7241 16.7974 40.7241 12.3686C40.7241 7.76952 34.2971 7.34131 34.2971 5.34174C34.2976 3.34169 38.7827 3.59862 40.7534 4.68452Z" fill="white"/>
</g>
<path id="Vector_2" d="M11.4156 9.97783L9.86602 2.02307C9.86602 2.02307 9.67865 0.43042 7.68145 0.43042H0.423182L0.338013 0.72993C0.338013 0.72993 3.82662 1.45292 7.1728 4.16175C10.3723 6.75088 11.4156 9.97783 11.4156 9.97783Z" fill="#E6A540"/>
</g>
</svg>
