<svg width="18" height="18" viewBox="0 0 18 18" fill="none" xmlns="http://www.w3.org/2000/svg">
<g id="Iconly/Bold/Wallet">
<g id="Wallet">
<path id="Wallet_2" fill-rule="evenodd" clip-rule="evenodd" d="M12.8144 6.52237H15.8641C15.8641 4.07375 14.3969 2.64331 11.911 2.64331H5.40165C2.91578 2.64331 1.44861 4.07375 1.44861 6.49114V11.7694C1.44861 14.1868 2.91578 15.6172 5.40165 15.6172H11.911C14.3969 15.6172 15.8641 14.1868 15.8641 11.7694V11.5445H12.8144C11.399 11.5445 10.2517 10.4259 10.2517 9.04595C10.2517 7.66602 11.399 6.54736 12.8144 6.54736V6.52237ZM12.8144 7.59678H15.3259C15.6232 7.59678 15.8641 7.8317 15.8641 8.12148V9.94546C15.8606 10.2338 15.6217 10.4668 15.3259 10.4702H12.8721C12.1556 10.4796 11.529 10.0013 11.3665 9.32081C11.2851 8.89841 11.3993 8.46254 11.6786 8.13001C11.9579 7.79748 12.3736 7.6023 12.8144 7.59678ZM12.9234 9.51442H13.1604C13.4647 9.51442 13.7114 9.27391 13.7114 8.97722C13.7114 8.68054 13.4647 8.44003 13.1604 8.44003H12.9234C12.7778 8.43836 12.6376 8.49356 12.5341 8.59331C12.4306 8.69307 12.3724 8.82907 12.3724 8.97098C12.3723 9.26869 12.618 9.511 12.9234 9.51442ZM4.86347 6.52242H8.93184C9.23615 6.52242 9.48283 6.28191 9.48283 5.98522C9.48283 5.68854 9.23615 5.44802 8.93184 5.44802H4.86347C4.56165 5.448 4.31599 5.68473 4.31248 5.97897C4.31246 6.27669 4.55814 6.519 4.86347 6.52242Z" fill="#606060"/>
</g>
</g>
</svg>
