<svg width="59" height="11" viewBox="0 0 59 11" fill="none" xmlns="http://www.w3.org/2000/svg">
<g id="Right Side">
<g id="Battery">
<path id="Rectangle" opacity="0.35" d="M37.8773 2.7867C37.8773 1.75171 38.7163 0.912689 39.7513 0.912689H54.1668C55.2018 0.912689 56.0408 1.75171 56.0408 2.7867V7.97627C56.0408 9.01126 55.2018 9.85029 54.1668 9.85029H39.7513C38.7163 9.85029 37.8773 9.01126 37.8773 7.97627V2.7867Z" fill="#141F39" stroke="#141F39" stroke-width="0.864929"/>
<path id="Combined Shape" opacity="0.4" d="M57.3382 3.65161V7.11133C58.0342 6.81831 58.4869 6.13667 58.4869 5.38147C58.4869 4.62627 58.0342 3.94463 57.3382 3.65161Z" fill="#141F39"/>
<path id="Rectangle_2" d="M39.1747 3.16138C39.1747 2.63593 39.6007 2.20996 40.1262 2.20996H53.792C54.3175 2.20996 54.7435 2.63593 54.7435 3.16138V7.60135C54.7435 8.12681 54.3175 8.55277 53.792 8.55277H40.1262C39.6007 8.55277 39.1747 8.12681 39.1747 7.60135V3.16138Z" fill="#141F39"/>
</g>
<path id="Wifi" fill-rule="evenodd" clip-rule="evenodd" d="M26.4864 2.44763C28.403 2.44772 30.2463 3.18415 31.6353 4.50472C31.7399 4.60667 31.9071 4.60539 32.0101 4.50184L33.01 3.49275C33.0622 3.44023 33.0912 3.36909 33.0908 3.29507C33.0904 3.22105 33.0605 3.15025 33.0077 3.09835C29.3619 -0.395575 23.6103 -0.395575 19.9646 3.09835C19.9117 3.15021 19.8818 3.22099 19.8813 3.29501C19.8808 3.36903 19.9098 3.4402 19.962 3.49275L20.9621 4.50184C21.0651 4.60554 21.2324 4.60683 21.3369 4.50472C22.7261 3.18406 24.5696 2.44763 26.4864 2.44763ZM26.4865 5.73062C27.5395 5.73055 28.555 6.12196 29.3356 6.82879C29.4411 6.9291 29.6074 6.92693 29.7104 6.82389L30.7091 5.8148C30.7617 5.76187 30.7908 5.69007 30.7901 5.61546C30.7893 5.54084 30.7587 5.46965 30.705 5.4178C28.328 3.20671 24.6469 3.20671 22.27 5.4178C22.2163 5.46965 22.1856 5.54088 22.1849 5.61552C22.1842 5.69015 22.2135 5.76195 22.2662 5.8148L23.2646 6.82389C23.3675 6.92693 23.5338 6.9291 23.6394 6.82879C24.4195 6.12243 25.4341 5.73105 26.4865 5.73062ZM28.487 7.93949C28.4885 8.01431 28.4591 8.08645 28.4057 8.13887L26.6782 9.88227C26.6275 9.93351 26.5585 9.96235 26.4864 9.96235C26.4144 9.96235 26.3453 9.93351 26.2947 9.88227L24.5669 8.13887C24.5135 8.08641 24.4841 8.01425 24.4857 7.93942C24.4873 7.8646 24.5197 7.79375 24.5752 7.74359C25.6785 6.81044 27.2944 6.81044 28.3976 7.74359C28.4531 7.79379 28.4855 7.86467 28.487 7.93949Z" fill="#141F39"/>
<path id="Mobile Signal" fill-rule="evenodd" clip-rule="evenodd" d="M14.6683 0.768433H13.8034C13.3257 0.768433 12.9385 1.15567 12.9385 1.63336V9.12941C12.9385 9.6071 13.3257 9.99434 13.8034 9.99434H14.6683C15.146 9.99434 15.5333 9.6071 15.5333 9.12941V1.63336C15.5333 1.15567 15.146 0.768433 14.6683 0.768433ZM9.7671 2.7866H10.632C11.1097 2.7866 11.497 3.17384 11.497 3.65153V9.12941C11.497 9.6071 11.1097 9.99434 10.632 9.99434H9.7671C9.28941 9.99434 8.90217 9.6071 8.90217 9.12941V3.65153C8.90217 3.17384 9.28941 2.7866 9.7671 2.7866ZM6.59563 4.80477H5.7307C5.25301 4.80477 4.86577 5.19201 4.86577 5.66969V9.12941C4.86577 9.6071 5.25301 9.99434 5.7307 9.99434H6.59563C7.07331 9.99434 7.46055 9.6071 7.46055 9.12941V5.66969C7.46055 5.19201 7.07331 4.80477 6.59563 4.80477ZM2.55933 6.53462H1.6944C1.21671 6.53462 0.829468 6.92186 0.829468 7.39955V9.12941C0.829468 9.6071 1.21671 9.99434 1.6944 9.99434H2.55933C3.03701 9.99434 3.42425 9.6071 3.42425 9.12941V7.39955C3.42425 6.92186 3.03701 6.53462 2.55933 6.53462Z" fill="#141F39"/>
</g>
</svg>
