<svg width="44" height="44" viewBox="0 0 44 44" fill="none" xmlns="http://www.w3.org/2000/svg">
<g id="withdraw">
<circle id="Ellipse 195" cx="21.9099" cy="21.9406" r="21.6232" fill="#3921F5"/>
<g id="Download">
<path id="Fill 1" fill-rule="evenodd" clip-rule="evenodd" d="M21.478 25.3943C21.1737 25.3943 20.9266 25.1583 20.9266 24.8676V16.4126C20.9266 16.1219 21.1737 15.886 21.478 15.886C21.7824 15.886 22.0294 16.1219 22.0294 16.4126V24.8676C22.0294 25.1583 21.7824 25.3943 21.478 25.3943Z" fill="#FAFCFE"/>
<path id="Fill 3" fill-rule="evenodd" clip-rule="evenodd" d="M21.478 25.3943C21.3317 25.3943 21.1906 25.3388 21.0876 25.2391L18.9438 23.1838C18.7291 22.9773 18.7299 22.6438 18.9453 22.4388C19.1614 22.2337 19.5099 22.2337 19.7246 22.4402L21.478 24.1219L23.2315 22.4402C23.4462 22.2337 23.7946 22.2337 24.0108 22.4388C24.2262 22.6438 24.2269 22.9773 24.0123 23.1838L21.8684 25.2391C21.7655 25.3388 21.6243 25.3943 21.478 25.3943Z" fill="#FAFCFE"/>
<g id="Group 7">
<mask id="mask0_1124_1378" style="mask-type:luminance" maskUnits="userSpaceOnUse" x="14" y="19" width="15" height="10">
<path id="Clip 6" fill-rule="evenodd" clip-rule="evenodd" d="M14.1254 19.209H28.8292V28.8598H14.1254V19.209Z" fill="white"/>
</mask>
<g mask="url(#mask0_1124_1378)">
<path id="Fill 5" fill-rule="evenodd" clip-rule="evenodd" d="M25.5761 28.8598H17.386C15.5885 28.8598 14.1254 27.4632 14.1254 25.7456V22.3155C14.1254 20.6021 15.5848 19.209 17.3794 19.209H18.0712C18.3756 19.209 18.6226 19.4449 18.6226 19.7356C18.6226 20.0263 18.3756 20.2623 18.0712 20.2623H17.3794C16.1928 20.2623 15.2282 21.1828 15.2282 22.3155V25.7456C15.2282 26.8825 16.1957 27.8065 17.386 27.8065H25.5761C26.7613 27.8065 27.7266 26.8846 27.7266 25.7527V22.3232C27.7266 21.1863 26.7583 20.2623 25.5695 20.2623H24.8843C24.5799 20.2623 24.3329 20.0263 24.3329 19.7356C24.3329 19.4449 24.5799 19.209 24.8843 19.209H25.5695C27.3671 19.209 28.8294 20.6063 28.8294 22.3232V25.7527C28.8294 27.466 27.3693 28.8598 25.5761 28.8598Z" fill="#FAFCFE"/>
</g>
</g>
</g>
</g>
</svg>
