<svg width="231" height="111" viewBox="0 0 231 111" fill="none" xmlns="http://www.w3.org/2000/svg">
<g id="graphic_deals">
<mask id="mask0_1124_1529" style="mask-type:alpha" maskUnits="userSpaceOnUse" x="0" y="0" width="231" height="111">
<rect id="Rectangle 2" x="0.981689" y="0.0806885" width="229.954" height="110.882" fill="#C4C4C4"/>
</mask>
<g mask="url(#mask0_1124_1529)">
<g id="graphic">
<path id="Vector" opacity="0.2" d="M38.6048 56.1443C19.9983 55.5964 2.30468 81.3314 -2.48376 92.0624V111.593H244.48L235.975 26.8564C217.075 31.5814 196.914 22.1313 191.151 21.896C178.154 21.896 158.772 48.8376 150.107 62.9934C142.993 75.5966 133.918 78.2908 130.269 78.0625C113.305 78.6104 100.399 50.436 96.0662 36.2803C92.2354 20.389 87.9226 17.1014 85.8052 17.1015C82.2525 17.0912 76.9124 21.7592 71.4399 37.6502C65.9674 53.5412 57.3026 57.9706 53.6542 58.1989C48.5512 58.5182 42.4812 56.1442 38.6048 56.1443Z" fill="url(#paint0_linear_1124_1529)"/>
<path id="Vector_2" d="M-2.48376 92.0624C2.30468 81.3314 19.9983 55.5964 38.6048 56.1443C42.4812 56.1442 48.5512 58.5182 53.6542 58.1989C57.3026 57.9706 65.9674 53.5412 71.4399 37.6502C76.9124 21.7592 82.2525 17.0912 85.8052 17.1015C87.9226 17.1014 92.2354 20.389 96.0662 36.2803C100.399 50.436 113.305 78.6104 130.269 78.0625C133.918 78.2908 142.993 75.5966 150.107 62.9934C158.772 48.8376 178.154 21.896 191.151 21.896C196.914 22.1313 217.075 31.5814 235.975 26.8564" stroke="#109CF1" stroke-width="1.26002" stroke-linejoin="round"/>
<circle id="Ellipse" cx="172.974" cy="32.8412" r="2.52004" fill="white" stroke="#109CF1" stroke-width="1.26002"/>
</g>
</g>
</g>
<defs>
<linearGradient id="paint0_linear_1124_1529" x1="120.998" y1="17.1014" x2="120.683" y2="111.593" gradientUnits="userSpaceOnUse">
<stop stop-color="#109CF1"/>
<stop offset="1" stop-color="#109CF1" stop-opacity="0"/>
</linearGradient>
</defs>
</svg>
