<svg width="22" height="22" viewBox="0 0 22 22" fill="none" xmlns="http://www.w3.org/2000/svg">
<g id="Contactless Payment">
<g id="Subtract">
<path d="M5.2019 9.56347L5.19742 9.56415L5.19296 9.56494C4.94408 9.60875 4.66961 9.42178 4.61546 9.11388C4.57212 8.8674 4.75518 8.59578 5.05785 8.53793C5.47544 8.4859 5.88203 8.34404 6.23654 8.16274C6.60562 7.974 6.96358 7.69855 7.27124 7.38531C7.5789 7.07206 7.84787 6.70921 8.02993 6.33681C8.20481 5.9791 8.33932 5.57005 8.38382 5.15161C8.43619 4.84795 8.70449 4.66003 8.95172 4.69892C9.26056 4.7475 9.45246 5.01854 9.41314 5.26816L9.41244 5.27264L9.41184 5.27713C9.33994 5.81457 9.19243 6.34457 8.97458 6.79196C8.70419 7.30425 8.40302 7.76047 8.0349 8.13527C7.64751 8.52969 7.24139 8.86383 6.73455 9.08651C6.18256 9.32903 5.72788 9.48343 5.2019 9.56347Z" fill="white"/>
<path d="M6.16016 11.9604L6.17109 11.9584L6.18189 11.9559C7.51699 11.6416 8.80342 10.9402 9.82839 9.8966C10.8531 8.85329 11.5312 7.55487 11.8215 6.21475C11.8867 5.92201 12.149 5.75973 12.4776 5.81142C12.6983 5.84614 12.9069 6.11849 12.8596 6.45245C12.5194 7.97808 11.7503 9.46725 10.5921 10.6466C9.39421 11.8662 7.95961 12.6216 6.43915 12.9893C6.12055 13.041 5.8629 12.8884 5.78944 12.6069C5.73693 12.2745 5.94042 11.999 6.16016 11.9604Z" fill="white"/>
<path d="M16.4805 7.59736L16.4757 7.61243L16.472 7.62784C15.9762 9.73018 14.9252 11.6797 13.3142 13.3199C11.7039 14.9594 9.77466 16.0451 7.68261 16.579C7.36941 16.6532 7.11149 16.5058 7.00042 16.2048C6.93411 15.8958 7.08511 15.6427 7.38676 15.5351C9.23572 15.0108 11.0421 14.0232 12.5093 12.5294C13.9699 11.0423 14.9712 9.26007 15.4237 7.34944C15.5268 7.04879 15.7762 6.89504 16.0848 6.95545C16.4151 7.07077 16.5554 7.36583 16.4805 7.59736Z" fill="white"/>
<path d="M20.0882 8.7091L20.0848 8.7194L20.0821 8.72986C19.3865 11.3729 18.0515 13.8589 15.995 15.9527C13.9407 18.0443 11.482 19.4232 8.85484 20.1668C8.54366 20.2386 8.28765 20.0911 8.17712 19.7915C8.11101 19.4835 8.26085 19.2311 8.5606 19.1229C11.0304 18.4681 13.3234 17.1454 15.2314 15.2027C17.1443 13.2551 18.3805 10.8972 19.0297 8.46603C19.1429 8.12938 19.4412 7.98576 19.6748 8.06127C20.0177 8.1721 20.1644 8.47349 20.0882 8.7091Z" fill="white"/>
</g>
</g>
</svg>
