<svg width="16" height="29" viewBox="0 0 16 29" fill="none" xmlns="http://www.w3.org/2000/svg">
<g id="Visa (White)" clip-path="url(#clip0_1124_2520)">
<g id="Union">
<path d="M11.9378 20.472C12.1097 20.0449 12.3003 19.3673 12.3041 18.5282C12.3138 16.3864 11.1771 14.8729 9.5424 14.8563C8.33635 14.8331 7.66149 15.9278 7.25563 16.7469C6.8409 17.5842 6.57139 17.8682 6.20509 17.8666C5.64256 17.8555 5.38625 17.1848 5.38907 16.5604C5.39297 15.6944 5.52876 15.2311 5.84492 14.5274L5.98038 14.2424L4.09669 13.9304C3.86239 14.438 3.65227 15.3743 3.63886 16.3473C3.62861 18.6231 4.74767 20.1097 6.4897 20.1351C7.4456 20.1481 8.1807 19.5718 8.78489 18.3249C9.17254 17.568 9.43371 17.1046 9.82685 17.1064C10.1842 17.1169 10.5485 17.5026 10.5447 18.3589C10.5594 19.0641 10.3874 19.5814 10.2159 19.9731L10.1258 20.1688L11.9378 20.472Z" fill="white"/>
<path d="M3.78103 12.5726L3.7908 10.4037L12.1822 11.7981L12.1724 13.9669L3.78103 12.5726Z" fill="white"/>
<path fill-rule="evenodd" clip-rule="evenodd" d="M12.1256 24.3551L12.1181 26.0328L3.71277 27.7447L3.72182 25.7365C3.72182 25.7365 4.68756 25.5443 4.98266 25.4834L4.99521 22.6987C4.77235 22.6171 3.73758 22.2378 3.73758 22.2378L3.74784 19.962L11.434 23.2184C11.978 23.444 12.1279 23.8378 12.1256 24.3551ZM9.0532 24.2076C9.0532 24.2076 7.18917 23.5119 6.70754 23.3311L6.69942 25.1339C7.11967 25.0466 9.13162 24.6449 9.13162 24.6449L9.85588 24.4966C9.66988 24.4319 9.41419 24.3385 9.24169 24.2755C9.12478 24.2327 9.04597 24.2039 9.0532 24.2076Z" fill="white"/>
<path d="M12.1965 8.62995L6.47975 6.48006L7.64216 6.25319L7.64284 6.25299L11.5046 5.51199C12.0415 5.38952 12.1951 5.0064 12.2149 4.53349L12.2307 1.04392L12.0612 1.00746C11.8394 1.85757 11.522 2.61738 11.1287 3.2826L3.82323 5.18287L3.81289 7.47644L12.1861 10.9234L12.1965 8.62995Z" fill="white"/>
</g>
</g>
<defs>
<clipPath id="clip0_1124_2520">
<rect width="27.2642" height="14.8714" fill="white" transform="translate(15.4813 1.02283) rotate(90.2582)"/>
</clipPath>
</defs>
</svg>
