<svg width="33" height="35" viewBox="0 0 33 35" fill="none" xmlns="http://www.w3.org/2000/svg">
<g id="Visa (White)" clip-path="url(#clip0_1124_2496)">
<g id="Union">
<path d="M15.42 25.2193C15.8753 24.9833 16.5285 24.5491 17.1409 23.8429C18.7042 22.04 18.8427 19.9359 17.4734 18.7349C16.4712 17.8395 15.1061 18.2745 14.1684 18.672C13.21 19.0784 12.776 19.1227 12.4677 18.8553C12.0004 18.4375 12.2708 17.6847 12.7266 17.1591C13.3586 16.4302 13.8098 16.1373 14.5879 15.7722L14.9093 15.6297L13.5442 13.9984C12.9776 14.2572 12.1202 14.8958 11.4024 15.7082C9.74133 17.6238 9.60746 19.6925 11.061 20.9789C11.8593 21.6839 12.8989 21.7307 14.3148 21.1157C15.1919 20.7577 15.7491 20.5557 16.08 20.8427C16.3744 21.111 16.4022 21.7015 15.7771 22.4223C15.2776 23.0288 14.7566 23.3411 14.3272 23.5475L14.109 23.6475L15.42 25.2193Z" fill="white"/>
<path d="M14.2633 12.6219L15.8464 10.7963L21.9246 18.0675L20.3416 19.893L14.2633 12.6219Z" fill="white"/>
<path fill-rule="evenodd" clip-rule="evenodd" d="M12.7592 28.6369L11.5347 30.049L3.1893 25.3926L4.65509 23.7022C4.65509 23.7022 5.61066 24.241 5.90427 24.4038L7.93682 22.0599C7.80771 21.8292 7.20878 20.7573 7.20878 20.7573L8.86986 18.8418L13.0002 27.1742C13.296 27.7599 13.1368 28.2014 12.7592 28.6369ZM10.2702 26.2814C10.2702 26.2814 9.20022 24.3401 8.92453 23.8376L7.60868 25.355C8.02718 25.5864 10.0189 26.7079 10.0189 26.7079L10.7386 27.1084C10.6284 26.9187 10.4801 26.6541 10.3802 26.4756C10.3124 26.3546 10.2667 26.2731 10.2702 26.2814Z" fill="white"/>
<path d="M24.237 15.4008L20.9674 9.43328L22.1144 10.0856L22.1151 10.0859L25.9163 12.2638C26.4589 12.5501 26.8669 12.3379 27.227 11.9527L29.774 9.0155L29.6573 8.8616C28.8527 9.41895 28.0328 9.83051 27.2174 10.107L19.6646 6.40829L17.9905 8.33882L22.563 17.3312L24.237 15.4008Z" fill="white"/>
</g>
</g>
<defs>
<clipPath id="clip0_1124_2496">
<rect width="30.375" height="16.5682" fill="white" transform="translate(32.536 11.3579) rotate(130.93)"/>
</clipPath>
</defs>
</svg>
