<svg width="34" height="34" viewBox="0 0 34 34" fill="none" xmlns="http://www.w3.org/2000/svg">
<g id="Visa (White)" clip-path="url(#clip0_1124_2472)">
<g id="Union">
<path d="M24.3876 18.1144C24.1827 17.6443 23.7934 16.9634 23.13 16.3049C21.4364 14.6238 19.3464 14.3441 18.056 15.6294C17.0952 16.5691 17.4374 17.9604 17.7709 18.9227C18.1118 19.9063 18.1268 20.3422 17.8393 20.6319C17.391 21.07 16.6581 20.7495 16.1643 20.2594C15.4797 19.5798 15.2177 19.1099 14.9059 18.309L14.7853 17.9787L13.0658 19.231C13.2859 19.8138 13.8654 20.7121 14.6277 21.483C16.4271 23.2692 18.4822 23.542 19.8634 22.1783C20.6206 21.4292 20.7372 20.3951 20.2189 18.941C19.9207 18.0418 19.7567 17.4723 20.0652 17.1615C20.3528 16.8858 20.9438 16.8978 21.6209 17.5699C22.1924 18.1092 22.4689 18.6499 22.646 19.0922L22.7311 19.3167L24.3876 18.1144Z" fill="white"/>
<path d="M11.7408 18.4209L10.0259 16.7186L17.6895 11.1434L19.4044 12.8457L11.7408 18.4209Z" fill="white"/>
<path fill-rule="evenodd" clip-rule="evenodd" d="M27.6184 20.9992L28.9449 22.3159L23.7375 30.3291L22.1496 28.7529C22.1496 28.7529 22.7515 27.8357 22.9337 27.5537L20.7318 25.3681C20.4929 25.4814 19.3832 26.0068 19.3832 26.0068L17.5837 24.2206L26.1752 20.6603C26.7794 20.4046 27.2093 20.5931 27.6184 20.9992ZM25.1007 23.3241C25.1007 23.3241 23.0918 24.261 22.5719 24.5022L23.9974 25.9172C24.2564 25.5152 25.5093 23.6035 25.5093 23.6035L25.9574 22.9124C25.7607 23.0096 25.4867 23.1396 25.3019 23.2274C25.1766 23.2869 25.0922 23.327 25.1007 23.3241Z" fill="white"/>
<path d="M15.1845 8.65681L9.01052 11.5175L9.73852 10.417L9.73889 10.4163L12.1676 6.77024C12.4898 6.24814 12.3055 5.82682 11.9454 5.44159L9.18622 2.7027L9.02482 2.80885C9.52676 3.64913 9.88223 4.49485 10.1032 5.32703L5.90473 12.6138L7.71824 14.414L16.9979 10.4569L15.1845 8.65681Z" fill="white"/>
</g>
</g>
<defs>
<clipPath id="clip0_1124_2472">
<rect width="30.375" height="16.5682" fill="white" transform="translate(11.7091 0.104614) rotate(44.7883)"/>
</clipPath>
</defs>
</svg>
